<svg width="1052" height="400" viewBox="0 0 1052 400" fill="none" xmlns="http://www.w3.org/2000/svg">
<path d="M727.6 121.3C719.3 121.3 712.6 114.6 712.6 106.3C712.6 98.0001 719.3 91.3001 727.6 91.3001C735.9 91.3001 742.6 98.0001 742.6 106.3C742.6 114.6 735.9 121.3 727.6 121.3ZM727.6 93.2001C720.4 93.2001 714.6 99.0001 714.6 106.2C714.6 113.4 720.4 119.2 727.6 119.2C734.8 119.2 740.6 113.4 740.6 106.2C740.6 99.0001 734.8 93.2001 727.6 93.2001ZM544.1 155.3C535.8 155.3 529.1 148.6 529.1 140.3C529.1 132 535.8 125.3 544.1 125.3C552.4 125.3 559.1 132 559.1 140.3C559.1 148.6 552.4 155.3 544.1 155.3ZM544.1 127.2C536.9 127.2 531.1 133 531.1 140.2C531.1 147.4 536.9 153.2 544.1 153.2C551.3 153.2 557.1 147.4 557.1 140.2C557.1 133 551.3 127.2 544.1 127.2ZM779.6 363.3C771.3 363.3 764.6 356.6 764.6 348.3C764.6 340 771.3 333.3 779.6 333.3C787.9 333.3 794.6 340 794.6 348.3C794.6 356.6 787.9 363.3 779.6 363.3ZM779.6 335.3C772.4 335.3 766.6 341.1 766.6 348.3C766.6 355.5 772.4 361.3 779.6 361.3C786.8 361.3 792.6 355.5 792.6 348.3C792.6 341.1 786.8 335.3 779.6 335.3ZM43.9004 47.9001C35.6004 47.9001 28.9004 41.2001 28.9004 32.9001C28.9004 24.6001 35.6004 17.9001 43.9004 17.9001C52.2004 17.9001 58.9004 24.6001 58.9004 32.9001C58.9004 41.2001 52.2004 47.9001 43.9004 47.9001ZM43.9004 19.9001C36.7004 19.9001 30.9004 25.7001 30.9004 32.9001C30.9004 40.1001 36.7004 45.9001 43.9004 45.9001C51.1004 45.9001 56.9004 40.1001 56.9004 32.9001C56.9004 25.7001 51.1004 19.9001 43.9004 19.9001ZM296.2 255.9C287.9 255.9 281.2 249.2 281.2 240.9C281.2 232.6 287.9 225.9 296.2 225.9C304.5 225.9 311.2 232.6 311.2 240.9C311.2 249.2 304.5 255.9 296.2 255.9ZM296.2 227.9C289 227.9 283.2 233.7 283.2 240.9C283.2 248.1 289 253.9 296.2 253.9C303.4 253.9 309.2 248.1 309.2 240.9C309.2 233.7 303.4 227.9 296.2 227.9ZM1002.4 37.2001C998 37.2001 994.4 33.6001 994.4 29.2001C994.4 24.8001 998 21.2001 1002.4 21.2001C1006.8 21.2001 1010.4 24.8001 1010.4 29.2001C1010.4 33.6001 1006.8 37.2001 1002.4 37.2001ZM1002.4 23.2001C999.1 23.2001 996.4 25.9001 996.4 29.2001C996.4 32.5001 999.1 35.2001 1002.4 35.2001C1005.7 35.2001 1008.4 32.5001 1008.4 29.2001C1008.4 25.9001 1005.7 23.2001 1002.4 23.2001ZM764.7 283.5C760.3 283.5 756.7 279.9 756.7 275.5C756.7 271.1 760.3 267.5 764.7 267.5C769.1 267.5 772.7 271.1 772.7 275.5C772.7 279.9 769.1 283.5 764.7 283.5ZM764.7 269.5C761.4 269.5 758.7 272.2 758.7 275.5C758.7 278.8 761.4 281.5 764.7 281.5C768 281.5 770.7 278.8 770.7 275.5C770.7 272.2 768 269.5 764.7 269.5ZM525 40.9001C520.6 40.9001 517 37.3001 517 32.9001C517 28.5001 520.6 24.9001 525 24.9001C529.4 24.9001 533 28.5001 533 32.9001C533 37.3001 529.4 40.9001 525 40.9001ZM525 26.9001C521.7 26.9001 519 29.6001 519 32.9001C519 36.2001 521.7 38.9001 525 38.9001C528.3 38.9001 531 36.2001 531 32.9001C531 29.6001 528.3 26.9001 525 26.9001ZM562.7 354.6C558.3 354.6 554.7 351 554.7 346.6C554.7 342.2 558.3 338.6 562.7 338.6C567.1 338.6 570.7 342.2 570.7 346.6C570.7 351 567.1 354.6 562.7 354.6ZM562.7 340.6C559.4 340.6 556.7 343.3 556.7 346.6C556.7 349.9 559.4 352.6 562.7 352.6C566 352.6 568.7 349.9 568.7 346.6C568.7 343.3 566 340.6 562.7 340.6ZM50.9004 276.5C46.5004 276.5 42.9004 272.9 42.9004 268.5C42.9004 264.1 46.5004 260.5 50.9004 260.5C55.3004 260.5 58.9004 264.1 58.9004 268.5C58.9004 272.9 55.4004 276.5 50.9004 276.5ZM50.9004 262.5C47.6004 262.5 44.9004 265.2 44.9004 268.5C44.9004 271.8 47.6004 274.5 50.9004 274.5C54.2004 274.5 56.9004 271.8 56.9004 268.5C56.9004 265.2 54.3004 262.5 50.9004 262.5ZM93.6004 68.7001C89.2004 68.7001 85.6004 65.1001 85.6004 60.7001C85.6004 56.3001 89.2004 52.7001 93.6004 52.7001C98.0004 52.7001 101.6 56.3001 101.6 60.7001C101.6 65.1001 98.0004 68.7001 93.6004 68.7001ZM93.6004 54.7001C90.3004 54.7001 87.6004 57.4001 87.6004 60.7001C87.6004 64.0001 90.3004 66.7001 93.6004 66.7001C96.9004 66.7001 99.6004 64.0001 99.6004 60.7001C99.6004 57.4001 96.9004 54.7001 93.6004 54.7001ZM287.7 40.9001C283.3 40.9001 279.7 37.3001 279.7 32.9001C279.7 28.5001 283.3 24.9001 287.7 24.9001C292.1 24.9001 295.7 28.5001 295.7 32.9001C295.7 37.3001 292.1 40.9001 287.7 40.9001ZM287.7 26.9001C284.4 26.9001 281.7 29.6001 281.7 32.9001C281.7 36.2001 284.4 38.9001 287.7 38.9001C291 38.9001 293.7 36.2001 293.7 32.9001C293.7 29.6001 291 26.9001 287.7 26.9001ZM822.6 71.9001C820.3 71.9001 818.4 70.0001 818.4 67.7001C818.4 65.4001 820.3 63.5001 822.6 63.5001C824.9 63.5001 826.8 65.4001 826.8 67.7001C826.8 70.0001 824.9 71.9001 822.6 71.9001ZM822.6 64.5001C820.8 64.5001 819.4 65.9001 819.4 67.7001C819.4 69.5001 820.8 70.9001 822.6 70.9001C824.4 70.9001 825.8 69.5001 825.8 67.7001C825.8 65.9001 824.3 64.5001 822.6 64.5001ZM698.6 96.4001C696.3 96.4001 694.4 94.5001 694.4 92.2001C694.4 89.9001 696.3 88.0001 698.6 88.0001C700.9 88.0001 702.8 89.9001 702.8 92.2001C702.8 94.5001 700.9 96.4001 698.6 96.4001ZM698.6 89.0001C696.8 89.0001 695.4 90.4001 695.4 92.2001C695.4 94.0001 696.8 95.4001 698.6 95.4001C700.4 95.4001 701.8 94.0001 701.8 92.2001C701.8 90.4001 700.4 89.0001 698.6 89.0001ZM544.1 44.1001C541.8 44.1001 539.9 42.2001 539.9 39.9001C539.9 37.6001 541.8 35.7001 544.1 35.7001C546.4 35.7001 548.3 37.6001 548.3 39.9001C548.3 42.2001 546.4 44.1001 544.1 44.1001ZM544.1 36.7001C542.3 36.7001 540.9 38.1001 540.9 39.9001C540.9 41.7001 542.3 43.1001 544.1 43.1001C545.9 43.1001 547.3 41.7001 547.3 39.9001C547.3 38.1001 545.8 36.7001 544.1 36.7001ZM310.2 268.5C307.9 268.5 306 266.6 306 264.3C306 262 307.9 260.1 310.2 260.1C312.5 260.1 314.4 262 314.4 264.3C314.4 266.6 312.5 268.5 310.2 268.5ZM310.2 261.1C308.4 261.1 307 262.5 307 264.3C307 266.1 308.4 267.5 310.2 267.5C312 267.5 313.4 266.1 313.4 264.3C313.4 262.5 312 261.1 310.2 261.1ZM301.1 47.8001C298.8 47.8001 296.9 45.9001 296.9 43.6001C296.9 41.3001 298.8 39.4001 301.1 39.4001C303.4 39.4001 305.3 41.3001 305.3 43.6001C305.3 45.9001 303.4 47.8001 301.1 47.8001ZM301.1 40.4001C299.3 40.4001 297.9 41.8001 297.9 43.6001C297.9 45.4001 299.3 46.8001 301.1 46.8001C302.9 46.8001 304.3 45.4001 304.3 43.6001C304.3 41.8001 302.9 40.4001 301.1 40.4001ZM26.6004 64.9001C24.3004 64.9001 22.4004 63.0001 22.4004 60.7001C22.4004 58.4001 24.3004 56.5001 26.6004 56.5001C28.9004 56.5001 30.8004 58.4001 30.8004 60.7001C30.8004 63.0001 28.9004 64.9001 26.6004 64.9001ZM26.6004 57.5001C24.8004 57.5001 23.4004 58.9001 23.4004 60.7001C23.4004 62.5001 24.8004 63.9001 26.6004 63.9001C28.4004 63.9001 29.8004 62.5001 29.8004 60.7001C29.8004 58.9001 28.4004 57.5001 26.6004 57.5001ZM803.5 325.5C801.2 325.5 799.3 323.6 799.3 321.3C799.3 319 801.2 317.1 803.5 317.1C805.8 317.1 807.7 319 807.7 321.3C807.7 323.6 805.8 325.5 803.5 325.5ZM803.5 318.1C801.7 318.1 800.3 319.5 800.3 321.3C800.3 323.1 801.7 324.5 803.5 324.5C805.3 324.5 806.7 323.1 806.7 321.3C806.7 319.5 805.2 318.1 803.5 318.1ZM568.6 331.2C566.3 331.2 564.4 329.3 564.4 327C564.4 324.7 566.3 322.8 568.6 322.8C570.9 322.8 572.8 324.7 572.8 327C572.8 329.3 570.9 331.2 568.6 331.2ZM568.6 323.8C566.8 323.8 565.4 325.2 565.4 327C565.4 328.8 566.8 330.2 568.6 330.2C570.4 330.2 571.8 328.8 571.8 327C571.8 325.2 570.4 323.8 568.6 323.8ZM40.2004 248.8C37.9004 248.8 36.0004 246.9 36.0004 244.6C36.0004 242.3 37.9004 240.4 40.2004 240.4C42.5004 240.4 44.4004 242.3 44.4004 244.6C44.4004 246.9 42.6004 248.8 40.2004 248.8ZM40.2004 241.4C38.4004 241.4 37.0004 242.8 37.0004 244.6C37.0004 246.4 38.4004 247.8 40.2004 247.8C42.0004 247.8 43.4004 246.4 43.4004 244.6C43.4004 242.8 42.0004 241.4 40.2004 241.4ZM1021.1 238.2C1018.8 238.2 1016.9 236.3 1016.9 234C1016.9 231.7 1018.8 229.8 1021.1 229.8C1023.4 229.8 1025.3 231.7 1025.3 234C1025.3 236.3 1023.4 238.2 1021.1 238.2ZM1021.1 230.8C1019.3 230.8 1017.9 232.2 1017.9 234C1017.9 235.8 1019.3 237.2 1021.1 237.2C1022.9 237.2 1024.3 235.8 1024.3 234C1024.3 232.2 1022.9 230.8 1021.1 230.8ZM463.5 272C461.2 272 459.3 270.1 459.3 267.8C459.3 265.5 461.2 263.6 463.5 263.6C465.8 263.6 467.7 265.5 467.7 267.8C467.7 270.1 465.8 272 463.5 272ZM463.5 264.6C461.7 264.6 460.3 266 460.3 267.8C460.3 269.6 461.7 271 463.5 271C465.3 271 466.7 269.6 466.7 267.8C466.7 266 465.2 264.6 463.5 264.6ZM1027.9 176.5L897.9 9.1001C897.5 8.6001 896.7 8.6001 896.3 9.1001L766.2 176.4C766 176.7 765.9 177.2 766.1 177.6C766.3 177.9 766.6 178.3 767 178.3H1027.1C1027.5 178.3 1027.8 178 1028 177.6C1028.2 177.2 1028.1 176.8 1027.9 176.5ZM871.4 159.8L866.6 161.3C864.8 147.4 869.3 135.9 879.8 127.2C880 127 880 126.7 879.9 126.5C879.7 126.3 879.4 126.3 879.2 126.4C868.3 135.4 863.8 147.3 865.7 161.6C865.2 161.8 864.6 162 864 162.1C862.8 162.5 861.7 162.9 860.5 163.3C859.8 160 859.1 157.1 858.3 154.6C858.2 154.3 857.9 154.2 857.7 154.3C857.4 154.4 857.3 154.7 857.4 154.9C858.2 157.4 858.9 160.3 859.6 163.6C857.9 164.2 856.2 164.7 854.5 165.3C848.9 142.9 844.7 143.5 819.2 146.9C816 147.3 812.4 147.8 808.4 148.3C804.3 148.8 801.3 148.1 799.3 146.2C797.9 144.8 797 142.9 796.6 140.7L798.4 138.4C798.3 138.6 798.2 138.9 798.3 139.2C798.5 139.7 799 139.9 799.5 139.7C800 139.5 800.2 139 800 138.5C799.8 138 799.3 137.8 798.8 138C798.7 138 798.6 138.1 798.5 138.2L801 135C801.2 137.5 801.9 139.6 803.4 141.1C804.9 142.5 806.9 143.3 809.7 143.3C810.5 143.3 811.4 143.2 812.3 143.1C812.6 143.1 812.8 142.8 812.7 142.5C812.6 142.2 812.4 142 812.1 142.1C808.3 142.6 805.7 142 804 140.4C802.5 138.9 801.9 136.5 801.8 133.8L806 128.4C815.4 128.2 824.1 127.5 832 126.3C832.3 126.3 832.5 126 832.4 125.7C832.4 125.4 832.1 125.2 831.8 125.3C824.3 126.5 815.9 127.2 806.8 127.4L808.1 125.8C808.5 126.3 809.1 126.6 809.7 126.6C809.9 126.6 810.2 126.6 810.4 126.5C811.5 126.1 812 124.9 811.6 123.9C811.4 123.3 811 122.9 810.4 122.7L811.7 121.1C820.8 120.5 831.6 119.3 841.5 116.9C863.7 111.6 871.1 97.3001 877.1 85.7001C881.9 76.4001 885.5 69.6001 895.1 71.9001L893.8 78.6001C893.7 79.1001 894 79.7001 894.6 79.8001H894.8C895.3 79.8001 895.7 79.5001 895.8 79.0001L897.1 72.3001C900.8 73.2001 904.2 73.9001 907.4 74.5001L906.1 80.9001C906 81.4001 906.3 82.0001 906.9 82.1001H907.1C907.6 82.1001 908 81.8001 908.1 81.3001L909.4 74.9001C912.4 75.5001 915.2 76.0001 917.7 76.5001C918.4 76.6001 919.1 76.8001 919.8 76.9001L918.5 83.4001C918.4 83.9001 918.7 84.5001 919.3 84.6001H919.5C920 84.6001 920.4 84.3001 920.5 83.8001L921.8 77.3001C925.8 78.1001 929.2 78.8001 932 79.6001L930.8 85.8001C930.7 86.3001 931 86.9001 931.6 87.0001H931.8C932.3 87.0001 932.7 86.7001 932.8 86.2001L934 80.2001C939 82.0001 942.2 84.5001 944.2 89.2001C944.2 89.3001 944.3 89.4001 944.3 89.5001C945.9 93.4001 946.8 98.8001 947.1 106.4C945.6 106.5 943.8 106.6 941.8 106.8C941.5 106.8 941.3 107.1 941.3 107.3C941.3 107.6 941.5 107.8 941.8 107.8C943.8 107.6 945.6 107.5 947 107.4C947.1 108.7 947.1 110.1 947.1 111.6C943.8 111.8 932.8 112.4 920.3 115C900.2 119.2 886 126.1 878.1 135.5C872.3 142.5 870.1 150.7 871.4 159.8ZM809.8 123.6C810.2 123.6 810.5 123.9 810.7 124.3C810.9 124.8 810.6 125.4 810.1 125.6C809.6 125.8 809 125.5 808.8 125L809.8 123.6ZM897.1 11.3001L958.3 90.1001C953.8 89.9001 949.5 89.4001 945.6 88.2001C943.3 83.0001 939.6 80.3001 934.1 78.3001L934.6 75.7001C934.7 75.2001 934.4 74.6001 933.8 74.5001C933.3 74.4001 932.7 74.7001 932.6 75.3001L932.1 77.7001C929.2 76.8001 925.8 76.1001 921.9 75.4001L922.3 73.3001C922.4 72.8001 922.1 72.2001 921.5 72.1001C921 72.0001 920.4 72.3001 920.3 72.9001L919.9 75.0001C919.2 74.9001 918.5 74.7001 917.8 74.6001C915.3 74.1001 912.6 73.6001 909.6 73.0001L910 70.8001C910.1 70.3001 909.8 69.7001 909.2 69.6001C908.7 69.5001 908.1 69.8001 908 70.4001L907.6 72.6001C904.4 72.0001 901 71.2001 897.3 70.4001L897.7 68.4001C897.8 67.9001 897.5 67.3001 896.9 67.2001C896.4 67.1001 895.8 67.4001 895.7 68.0001L895.3 69.9001C890.5 68.8001 887 69.6001 884.2 71.7001L876.9 70.2001C876.5 70.1001 876 70.3001 875.8 70.7001C875.6 71.0001 871.9 78.3001 874.6 85.6001C868.9 96.6001 861.5 109.8 840.8 114.8C831.7 117 821.8 118.2 813.2 118.8L897.1 11.3001ZM882.5 73.5001C880.1 76.0001 878.1 79.4001 876.2 83.2001C875.3 78.6001 876.8 74.1001 877.5 72.5001L882.5 73.5001ZM879.6 137C889 125.7 907.1 120 920.6 117.1C935.3 114 948 113.7 948.1 113.7C948.6 113.7 949.1 113.2 949.1 112.7C948.9 102.6 948.1 95.6001 946.4 90.5001C950 91.4001 954.6 92.0001 959.8 92.1001L990.3 131.4C979.4 136.6 968.3 141.1 956.9 144.9C941.3 150.1 931.1 150.7 920.2 151.3C908.5 151.9 895.4 152.7 873.3 159.2C872.2 150.8 874.3 143.3 879.6 137ZM790.1 147.4C790.2 147.8 790.2 148.3 790.3 148.7L792.1 146.4L795 142.6C795.6 144.5 796.5 146.3 797.9 147.6C800.3 150 804 150.9 808.6 150.3C812.6 149.8 816.2 149.3 819.4 148.9C845 145.4 847.3 145.2 852.5 166C836.7 171 825.1 174.2 816.9 176.2H801.4C795.7 168.2 793.2 157.1 792 146.6L790.2 148.8C791.4 158.5 793.8 168.2 798.8 176.2H768.9L790.1 148.8C790.2 148.3 790.2 147.9 790.1 147.4ZM875.2 176.2L882 173.7L882.9 176.2H875.2ZM872.3 176.2H843.6C851.4 173.2 858.3 171.3 864.2 169.3C870.3 167.2 875.3 165.5 878.8 164.5L881.7 172.6L872.3 176.2ZM1025.1 176.2H885.1L880.7 164.1C901.3 159.1 914.5 158.4 928.5 157.7C930.6 157.6 932.8 157.5 935 157.3C943.8 156.8 965.2 151.6 994.6 136.8L993.4 135.2C964.5 149.7 943.5 154.8 934.9 155.3C932.7 155.4 930.5 155.5 928.4 155.6C914.1 156.3 900.6 157 879.4 162.2C879.3 162.2 879.2 162.2 879.1 162.3H879C875.3 163.2 870.1 165.1 863.6 167.3C856.2 169.8 847 173.1 836.7 176.1H825.5C835.1 173.1 847.9 169.7 864.7 164.1C892.3 154.8 907.3 153.9 920.4 153.2C931.4 152.6 941.8 152 957.6 146.7C969.3 142.8 980.6 138.2 991.7 132.9L993.5 135.2L994.7 136.8C995 136.7 995.3 136.5 995.6 136.4L995.7 136.5L1027.2 177.2L995.7 136.6C995.4 136.8 995.1 136.9 994.8 137L1025.1 176.2Z" fill="black"/>
<path d="M854.999 149.4C855.099 149.6 855.299 149.7 855.399 149.7C855.499 149.7 855.599 149.7 855.599 149.6C855.799 149.5 855.899 149.2 855.799 148.9C849.499 136.7 839.399 138.2 821.099 140.8C819.699 141 818.199 141.2 816.699 141.4C816.399 141.4 816.199 141.7 816.299 142C816.299 142.3 816.599 142.5 816.899 142.4C818.399 142.2 819.899 142 821.299 141.8C839.199 139.2 849.099 137.8 854.999 149.4ZM883.299 124C883.399 124.1 883.599 124.2 883.699 124.2C883.799 124.2 883.899 124.2 883.999 124.1C896.099 116 914.299 110.6 937.899 108.2C938.199 108.2 938.399 107.9 938.299 107.7C938.299 107.4 937.999 107.2 937.799 107.3C913.999 109.7 895.799 115.1 883.499 123.3C883.199 123.5 883.199 123.8 883.299 124ZM886.399 93.0998C886.699 92.9998 886.799 92.6998 886.699 92.4998C886.599 92.1998 886.299 92.0998 886.099 92.1998C883.099 93.1998 880.599 95.0998 878.899 97.6998C877.099 100.5 867.399 114.6 853.499 119.9C848.599 121.7 843.099 123.3 837.099 124.4C836.799 124.5 836.699 124.7 836.699 125C836.699 125.2 836.999 125.4 837.199 125.4H837.299C843.399 124.2 848.899 122.7 853.799 120.8C867.999 115.4 877.899 101.1 879.699 98.1998C881.299 95.7998 883.699 93.9998 886.399 93.0998ZM890.699 92.4998C891.099 92.4998 891.599 92.4998 891.999 92.5998L914.099 95.1998H914.199C914.399 95.1998 914.699 94.9998 914.699 94.7998C914.699 94.4998 914.499 94.2998 914.299 94.1998L892.199 91.4998C891.699 91.3998 891.299 91.2998 890.799 91.2998C890.499 91.2998 890.299 91.5998 890.299 91.8998C890.199 92.0998 890.399 92.4998 890.699 92.4998ZM917.199 94.9998C917.199 95.2998 917.399 95.4998 917.599 95.5998C922.199 96.0998 925.899 99.4998 926.799 104L927.099 105.6C927.099 105.8 927.399 106 927.599 106H927.699C927.999 105.9 928.099 105.7 928.099 105.4L927.799 103.8C926.799 98.8998 922.699 95.1998 917.699 94.5998C917.499 94.5998 917.299 94.7998 917.199 94.9998Z" fill="black"/>
<path d="M944.409 110.531C944.876 110.361 945.117 109.845 944.947 109.377C944.776 108.91 944.26 108.67 943.793 108.84C943.326 109.01 943.085 109.527 943.255 109.994C943.425 110.461 943.942 110.701 944.409 110.531Z" fill="black"/>
<path d="M939.716 111.113C940.183 110.943 940.423 110.426 940.253 109.959C940.083 109.492 939.567 109.251 939.1 109.421C938.633 109.592 938.392 110.108 938.562 110.575C938.732 111.042 939.249 111.283 939.716 111.113Z" fill="black"/>
<path d="M914.997 114.728C915.464 114.558 915.705 114.041 915.534 113.574C915.364 113.107 914.848 112.867 914.381 113.037C913.914 113.207 913.673 113.723 913.843 114.19C914.013 114.657 914.53 114.898 914.997 114.728Z" fill="black"/>
<path d="M925.306 112.942C925.773 112.772 926.013 112.256 925.843 111.789C925.673 111.322 925.156 111.081 924.689 111.251C924.222 111.421 923.982 111.938 924.152 112.405C924.322 112.872 924.838 113.112 925.306 112.942Z" fill="black"/>
<path d="M929.225 112.542C929.692 112.372 929.933 111.856 929.763 111.389C929.593 110.922 929.076 110.681 928.609 110.851C928.142 111.021 927.902 111.538 928.072 112.005C928.242 112.472 928.758 112.713 929.225 112.542Z" fill="black"/>
<path d="M910.307 116.137C910.775 115.966 911.015 115.45 910.845 114.983C910.675 114.516 910.158 114.275 909.691 114.445C909.224 114.615 908.984 115.132 909.154 115.599C909.324 116.066 909.84 116.307 910.307 116.137Z" fill="black"/>
<path d="M899.72 119.833C900.187 119.663 900.427 119.147 900.257 118.68C900.087 118.213 899.571 117.972 899.103 118.142C898.636 118.312 898.396 118.829 898.566 119.296C898.736 119.763 899.253 120.004 899.72 119.833Z" fill="black"/>
<path d="M895.026 121.751C895.493 121.581 895.734 121.065 895.564 120.598C895.394 120.131 894.877 119.89 894.41 120.06C893.943 120.23 893.702 120.747 893.873 121.214C894.043 121.681 894.559 121.922 895.026 121.751Z" fill="black"/>
<path d="M874.723 137.623C875.191 137.453 875.431 136.937 875.261 136.47C875.091 136.003 874.574 135.762 874.107 135.932C873.64 136.102 873.4 136.619 873.57 137.086C873.74 137.553 874.256 137.794 874.723 137.623Z" fill="black"/>
<path d="M881.606 130.124C882.073 129.954 882.314 129.437 882.144 128.97C881.974 128.503 881.457 128.263 880.99 128.433C880.523 128.603 880.282 129.119 880.453 129.586C880.623 130.053 881.139 130.294 881.606 130.124Z" fill="black"/>
<path d="M885.405 127.144C885.872 126.974 886.113 126.458 885.943 125.991C885.773 125.524 885.256 125.283 884.789 125.453C884.322 125.623 884.081 126.14 884.251 126.607C884.422 127.074 884.938 127.315 885.405 127.144Z" fill="black"/>
<path d="M872.405 140.84C872.872 140.67 873.113 140.153 872.943 139.686C872.773 139.219 872.256 138.978 871.789 139.149C871.322 139.319 871.081 139.835 871.251 140.302C871.422 140.769 871.938 141.01 872.405 140.84Z" fill="black"/>
<path d="M869.307 150.245C869.775 150.074 870.015 149.558 869.845 149.091C869.675 148.624 869.158 148.383 868.691 148.553C868.224 148.723 867.984 149.24 868.154 149.707C868.324 150.174 868.84 150.415 869.307 150.245Z" fill="black"/>
<path d="M869.011 153.639C869.478 153.469 869.718 152.952 869.548 152.485C869.378 152.018 868.862 151.778 868.394 151.948C867.927 152.118 867.687 152.634 867.857 153.102C868.027 153.569 868.544 153.809 869.011 153.639Z" fill="black"/>
<path d="M855.52 157.248C855.987 157.078 856.228 156.562 856.058 156.095C855.888 155.628 855.371 155.387 854.904 155.557C854.437 155.727 854.197 156.244 854.367 156.711C854.537 157.178 855.053 157.419 855.52 157.248Z" fill="black"/>
<path d="M854.206 153.539C854.673 153.369 854.914 152.852 854.743 152.385C854.573 151.918 854.057 151.678 853.59 151.848C853.123 152.018 852.882 152.534 853.052 153.001C853.222 153.468 853.739 153.709 854.206 153.539Z" fill="black"/>
<path d="M847.919 145.43C848.386 145.259 848.626 144.743 848.456 144.276C848.286 143.809 847.77 143.568 847.303 143.738C846.836 143.908 846.595 144.425 846.765 144.892C846.935 145.359 847.452 145.6 847.919 145.43Z" fill="black"/>
<path d="M843.815 143.535C844.282 143.364 844.523 142.848 844.353 142.381C844.183 141.914 843.666 141.673 843.199 141.843C842.732 142.013 842.491 142.53 842.662 142.997C842.832 143.464 843.348 143.705 843.815 143.535Z" fill="black"/>
<path d="M827.901 144.231C828.368 144.061 828.609 143.544 828.439 143.077C828.269 142.61 827.752 142.369 827.285 142.54C826.818 142.71 826.577 143.226 826.748 143.693C826.918 144.16 827.434 144.401 827.901 144.231Z" fill="black"/>
<path d="M832.612 143.651C833.079 143.481 833.32 142.964 833.15 142.497C832.98 142.03 832.463 141.789 831.996 141.96C831.529 142.13 831.288 142.646 831.458 143.113C831.629 143.58 832.145 143.821 832.612 143.651Z" fill="black"/>
<path d="M811.401 146.334C811.868 146.164 812.109 145.648 811.939 145.181C811.769 144.714 811.252 144.473 810.785 144.643C810.318 144.813 810.077 145.33 810.248 145.797C810.418 146.264 810.934 146.505 811.401 146.334Z" fill="black"/>
<path d="M816.725 145.726C817.192 145.556 817.433 145.04 817.263 144.573C817.093 144.106 816.576 143.865 816.109 144.035C815.642 144.205 815.402 144.722 815.572 145.189C815.742 145.656 816.258 145.897 816.725 145.726Z" fill="black"/>
<path d="M801.11 143.632C801.577 143.462 801.818 142.946 801.648 142.479C801.478 142.012 800.961 141.771 800.494 141.941C800.027 142.111 799.786 142.628 799.956 143.095C800.127 143.562 800.643 143.802 801.11 143.632Z" fill="black"/>
<path d="M930.612 106.613C931.079 106.443 931.32 105.926 931.15 105.459C930.98 104.992 930.463 104.751 929.996 104.921C929.529 105.092 929.288 105.608 929.458 106.075C929.629 106.542 930.145 106.783 930.612 106.613Z" fill="black"/>
<path d="M929.72 102.724C930.187 102.554 930.427 102.037 930.257 101.57C930.087 101.103 929.571 100.863 929.103 101.033C928.636 101.203 928.396 101.719 928.566 102.186C928.736 102.653 929.253 102.894 929.72 102.724Z" fill="black"/>
<path d="M927.917 99.2104C928.384 99.0403 928.625 98.5237 928.454 98.0567C928.284 97.5897 927.768 97.349 927.301 97.5191C926.834 97.6892 926.593 98.2058 926.763 98.6728C926.933 99.1398 927.45 99.3805 927.917 99.2104Z" fill="black"/>
<path d="M925.722 96.0434C926.189 95.8732 926.429 95.3567 926.259 94.8897C926.089 94.4227 925.572 94.182 925.105 94.3521C924.638 94.5222 924.398 95.0388 924.568 95.5058C924.738 95.9728 925.255 96.2135 925.722 96.0434Z" fill="black"/>
<path d="M922.102 94.1298C922.569 93.9597 922.81 93.4431 922.64 92.9761C922.47 92.5091 921.953 92.2684 921.486 92.4385C921.019 92.6087 920.779 93.1252 920.949 93.5922C921.119 94.0593 921.635 94.2999 922.102 94.1298Z" fill="black"/>
<path d="M918.218 93.1234C918.685 92.9533 918.925 92.4368 918.755 91.9698C918.585 91.5027 918.069 91.262 917.602 91.4322C917.134 91.6023 916.894 92.1188 917.064 92.5859C917.234 93.0529 917.751 93.2936 918.218 93.1234Z" fill="black"/>
<path d="M914.11 92.662C914.577 92.4919 914.818 91.9754 914.648 91.5083C914.478 91.0413 913.961 90.8006 913.494 90.9708C913.027 91.1409 912.786 91.6574 912.956 92.1244C913.127 92.5915 913.643 92.8322 914.11 92.662Z" fill="black"/>
<path d="M910.927 92.1259C911.394 91.9558 911.634 91.4392 911.464 90.9722C911.294 90.5052 910.777 90.2645 910.31 90.4346C909.843 90.6048 909.603 91.1213 909.773 91.5883C909.943 92.0553 910.46 92.296 910.927 92.1259Z" fill="black"/>
<path d="M906.819 91.6483C907.286 91.4782 907.527 90.9617 907.357 90.4947C907.187 90.0276 906.67 89.7869 906.203 89.9571C905.736 90.1272 905.495 90.6437 905.665 91.1108C905.836 91.5778 906.352 91.8185 906.819 91.6483Z" fill="black"/>
<path d="M902.108 90.9286C902.575 90.7585 902.816 90.242 902.646 89.7749C902.476 89.3079 901.959 89.0672 901.492 89.2374C901.025 89.4075 900.784 89.924 900.955 90.391C901.125 90.8581 901.641 91.0988 902.108 90.9286Z" fill="black"/>
<path d="M897.911 90.456C898.378 90.2859 898.619 89.7693 898.449 89.3023C898.278 88.8353 897.762 88.5946 897.295 88.7647C896.828 88.9348 896.587 89.4514 896.757 89.9184C896.927 90.3854 897.444 90.6261 897.911 90.456Z" fill="black"/>
<path d="M893.825 90.0365C894.292 89.8664 894.533 89.3499 894.363 88.8828C894.193 88.4158 893.676 88.1751 893.209 88.3453C892.742 88.5154 892.501 89.0319 892.671 89.499C892.841 89.966 893.358 90.2067 893.825 90.0365Z" fill="black"/>
<path d="M889.403 89.6366C889.87 89.4665 890.111 88.95 889.941 88.483C889.771 88.0159 889.254 87.7752 888.787 87.9454C888.32 88.1155 888.079 88.632 888.249 89.0991C888.42 89.5661 888.936 89.8068 889.403 89.6366Z" fill="black"/>
<path d="M884.811 90.351C885.278 90.1809 885.519 89.6643 885.349 89.1973C885.179 88.7303 884.662 88.4896 884.195 88.6597C883.728 88.8298 883.488 89.3464 883.658 89.8134C883.828 90.2804 884.344 90.5211 884.811 90.351Z" fill="black"/>
<path d="M880.714 92.8349C881.181 92.6647 881.421 92.1482 881.251 91.6812C881.081 91.2142 880.565 90.9735 880.098 91.1436C879.631 91.3137 879.39 91.8303 879.56 92.2973C879.73 92.7643 880.247 93.005 880.714 92.8349Z" fill="black"/>
<path d="M877.923 95.831C878.39 95.6609 878.63 95.1443 878.46 94.6773C878.29 94.2103 877.774 93.9696 877.307 94.1397C876.84 94.3098 876.599 94.8264 876.769 95.2934C876.939 95.7604 877.456 96.0011 877.923 95.831Z" fill="black"/>
<path d="M872.321 103.752C872.788 103.582 873.029 103.065 872.859 102.598C872.689 102.131 872.172 101.89 871.705 102.061C871.238 102.231 870.997 102.747 871.167 103.214C871.338 103.681 871.854 103.922 872.321 103.752Z" fill="black"/>
<path d="M869.526 106.738C869.993 106.568 870.234 106.052 870.064 105.585C869.894 105.117 869.377 104.877 868.91 105.047C868.443 105.217 868.202 105.734 868.373 106.201C868.543 106.668 869.059 106.908 869.526 106.738Z" fill="black"/>
<path d="M861.312 114.381C861.805 114.323 862.158 113.875 862.099 113.381C862.04 112.888 861.592 112.535 861.099 112.594C860.605 112.653 860.253 113.101 860.312 113.594C860.37 114.088 860.818 114.44 861.312 114.381Z" fill="black"/>
<path d="M857.906 116.58C858.399 116.521 858.752 116.074 858.693 115.58C858.634 115.086 858.186 114.734 857.692 114.793C857.199 114.852 856.847 115.3 856.905 115.793C856.964 116.287 857.412 116.639 857.906 116.58Z" fill="black"/>
<path d="M848.306 120.488C848.8 120.429 849.152 119.981 849.093 119.488C849.034 118.994 848.586 118.642 848.093 118.701C847.599 118.759 847.247 119.207 847.306 119.701C847.365 120.194 847.812 120.547 848.306 120.488Z" fill="black"/>
<path d="M843.615 121.764C844.108 121.705 844.461 121.258 844.402 120.764C844.343 120.27 843.895 119.918 843.402 119.977C842.908 120.036 842.556 120.484 842.614 120.977C842.673 121.471 843.121 121.823 843.615 121.764Z" fill="black"/>
<path d="M834.511 123.45C835.005 123.391 835.357 122.943 835.298 122.45C835.239 121.956 834.792 121.604 834.298 121.662C833.804 121.721 833.452 122.169 833.511 122.663C833.57 123.156 834.018 123.509 834.511 123.45Z" fill="black"/>
<path d="M830.21 124.053C830.704 123.994 831.056 123.546 830.997 123.053C830.939 122.559 830.491 122.207 829.997 122.266C829.504 122.324 829.151 122.772 829.21 123.266C829.269 123.759 829.717 124.112 830.21 124.053Z" fill="black"/>
<path d="M819.308 124.955C819.802 124.896 820.154 124.448 820.095 123.954C820.036 123.461 819.588 123.109 819.095 123.167C818.601 123.226 818.249 123.674 818.308 124.168C818.367 124.661 818.814 125.014 819.308 124.955Z" fill="black"/>
<path d="M814.503 125.464C814.997 125.405 815.349 124.957 815.29 124.464C815.232 123.97 814.784 123.618 814.29 123.677C813.797 123.735 813.444 124.183 813.503 124.677C813.562 125.17 814.01 125.523 814.503 125.464Z" fill="black"/>
<path d="M874.7 100.6C874.9 100.6 875.2 100.6 875.4 100.5C875.9 100.3 876.3 99.9002 876.5 99.4002C876.7 98.9002 876.8 98.4002 876.6 97.8002C876.4 97.3002 876 96.9002 875.5 96.7002C875 96.5002 874.5 96.4002 873.9 96.6002C872.8 97.0002 872.3 98.2002 872.7 99.2002C873.1 100.1 873.8 100.6 874.7 100.6ZM874.3 97.6002C874.4 97.6002 874.5 97.5002 874.7 97.5002C874.8 97.5002 875 97.5002 875.1 97.6002C875.3 97.7002 875.5 97.9002 875.6 98.2002C875.7 98.5002 875.7 98.7002 875.6 99.0002C875.5 99.2002 875.3 99.4002 875 99.5002C874.5 99.7002 873.9 99.4002 873.7 98.9002C873.5 98.4002 873.8 97.8002 874.3 97.6002ZM864.1 111.1C864.4 111.2 864.7 111.3 865 111.3C865.2 111.3 865.5 111.3 865.7 111.2C866.8 110.8 867.3 109.6 866.9 108.6C866.7 108.1 866.3 107.7 865.8 107.5C865.3 107.3 864.8 107.2 864.2 107.4C863.7 107.6 863.3 108 863.1 108.5C862.9 109 862.8 109.5 863 110.1C863.3 110.5 863.6 110.9 864.1 111.1ZM864.1 108.8C864.2 108.6 864.4 108.4 864.7 108.3C864.8 108.3 864.9 108.2 865.1 108.2C865.2 108.2 865.4 108.2 865.5 108.3C865.7 108.4 865.9 108.6 866 108.9C866.2 109.4 865.9 110 865.4 110.2C865.1 110.3 864.9 110.3 864.6 110.2C864.4 110.1 864.2 109.9 864.1 109.6C863.9 109.4 863.9 109.1 864.1 108.8ZM852.8 119.2C853 119.2 853.3 119.2 853.5 119.1C854.6 118.7 855.1 117.5 854.7 116.5C854.3 115.4 853.1 114.9 852.1 115.3C851.6 115.5 851.2 115.9 851 116.4C850.8 116.9 850.7 117.4 850.9 118C851.2 118.7 852 119.2 852.8 119.2ZM851.9 116.7C852 116.5 852.2 116.3 852.5 116.2C852.6 116.2 852.7 116.1 852.9 116.1C853.3 116.1 853.7 116.4 853.9 116.8C854.1 117.3 853.8 117.9 853.3 118.1C852.8 118.3 852.2 118 852 117.5C851.7 117.3 851.7 117 851.9 116.7ZM838.1 123.1C838.4 123.2 838.7 123.3 839 123.3C839.2 123.3 839.5 123.3 839.7 123.2C840.2 123 840.6 122.6 840.8 122.1C841 121.6 841.1 121.1 840.9 120.5C840.7 120 840.3 119.6 839.8 119.4C839.3 119.2 838.8 119.1 838.2 119.3C837.1 119.7 836.6 120.9 837 121.9C837.2 122.4 837.6 122.8 838.1 123.1ZM838.6 120.3C838.7 120.3 838.8 120.2 839 120.2C839.1 120.2 839.3 120.2 839.4 120.3C839.6 120.4 839.8 120.6 839.9 120.9C840 121.2 840 121.4 839.9 121.7C839.8 121.9 839.6 122.1 839.3 122.2C839 122.3 838.8 122.3 838.5 122.2C838.3 122.1 838.1 121.9 838 121.6C837.8 121 838.1 120.4 838.6 120.3ZM825.5 121.7C825 121.5 824.5 121.4 823.9 121.6C822.8 122 822.3 123.2 822.7 124.2C823 125 823.8 125.5 824.6 125.5C824.8 125.5 825.1 125.5 825.3 125.4C825.8 125.2 826.2 124.8 826.4 124.3C826.6 123.8 826.7 123.3 826.5 122.7C826.3 122.3 826 121.9 825.5 121.7ZM825.5 124C825.4 124.2 825.2 124.4 824.9 124.5C824.4 124.7 823.8 124.4 823.6 123.9C823.4 123.4 823.7 122.8 824.2 122.6C824.3 122.6 824.4 122.5 824.6 122.5C824.7 122.5 824.9 122.5 825 122.6C825.2 122.7 825.4 122.9 825.5 123.2C825.7 123.4 825.7 123.7 825.5 124ZM855.8 159.3C854.8 159.6 854.3 160.7 854.7 161.7C854.9 162.2 855.2 162.5 855.7 162.7C855.9 162.8 856.2 162.9 856.5 162.9C856.7 162.9 856.9 162.9 857.1 162.8C857.6 162.6 857.9 162.3 858.1 161.8C858.3 161.4 858.3 160.8 858.2 160.4C858 159.9 857.7 159.6 857.2 159.4C856.8 159.1 856.3 159.1 855.8 159.3ZM857.2 161.4C857.1 161.6 856.9 161.8 856.7 161.8C856.5 161.9 856.3 161.9 856 161.8C855.8 161.7 855.6 161.5 855.6 161.3C855.4 160.9 855.7 160.4 856.1 160.2C856.2 160.2 856.3 160.1 856.4 160.1C856.5 160.1 856.6 160.1 856.8 160.2C857 160.3 857.2 160.5 857.2 160.7C857.3 161 857.3 161.2 857.2 161.4ZM870.4 157.1C870 156.1 869 155.6 868 156C867 156.3 866.5 157.4 866.9 158.4C867.1 158.9 867.4 159.2 867.9 159.4C868.1 159.5 868.4 159.6 868.7 159.6C868.9 159.6 869.1 159.6 869.3 159.5C869.8 159.3 870.1 159 870.3 158.5C870.5 158 870.6 157.5 870.4 157.1ZM869.4 158.1C869.3 158.3 869.1 158.5 868.9 158.5C868.7 158.5 868.5 158.6 868.2 158.5C868 158.4 867.8 158.2 867.8 158C867.6 157.6 867.9 157.1 868.3 156.9C868.4 156.9 868.5 156.8 868.6 156.8C868.9 156.8 869.3 157 869.4 157.4C869.5 157.6 869.5 157.9 869.4 158.1ZM871.9 144.6C871.6 143.6 870.5 143.1 869.5 143.5C868.5 143.9 868 144.9 868.4 145.9C868.7 146.7 869.4 147.1 870.1 147.1C870.3 147.1 870.5 147.1 870.7 147C871.8 146.6 872.3 145.6 871.9 144.6ZM870.5 146C870.3 146.1 870.1 146.1 869.8 146C869.6 145.9 869.4 145.7 869.4 145.5C869.2 145.1 869.5 144.6 869.9 144.4C870 144.4 870.1 144.3 870.2 144.3C870.3 144.3 870.4 144.3 870.6 144.4C870.8 144.5 871 144.7 871 144.9C871.1 145.4 870.9 145.9 870.5 146ZM879 133.6C879.2 133.2 879.2 132.6 879.1 132.2C878.8 131.2 877.7 130.7 876.7 131.1C875.7 131.5 875.2 132.5 875.6 133.5C875.9 134.3 876.6 134.7 877.3 134.7C877.5 134.7 877.7 134.7 877.9 134.6C878.4 134.3 878.8 134 879 133.6ZM878.1 133.1C878 133.3 877.8 133.5 877.6 133.5C877.4 133.6 877.2 133.6 876.9 133.5C876.7 133.4 876.5 133.2 876.5 133C876.3 132.6 876.6 132.1 877 131.9C877.1 131.9 877.2 131.8 877.3 131.8C877.6 131.8 878 132 878.1 132.4C878.2 132.7 878.2 132.9 878.1 133.1ZM888.6 121.8C887.6 122.2 887.1 123.2 887.5 124.2C887.7 124.7 888 125 888.5 125.2C888.7 125.3 889 125.4 889.3 125.4C889.5 125.4 889.7 125.4 889.9 125.3C890.4 125.1 890.7 124.8 890.9 124.3C891.1 123.9 891.1 123.3 891 122.9C890.6 121.9 889.5 121.4 888.6 121.8ZM890 123.9C889.9 124.1 889.7 124.3 889.5 124.3C889.3 124.4 889.1 124.4 888.8 124.3C888.6 124.2 888.4 124 888.4 123.8C888.2 123.4 888.5 122.9 888.9 122.7C889 122.7 889.1 122.6 889.2 122.6C889.5 122.6 889.9 122.8 890 123.2C890.1 123.4 890.1 123.6 890 123.9ZM904.9 115.6C904.5 115.4 903.9 115.4 903.5 115.5C903 115.7 902.7 116 902.5 116.5C902.3 116.9 902.3 117.5 902.4 117.9C902.7 118.7 903.4 119.1 904.1 119.1C904.3 119.1 904.5 119.1 904.7 119C905.7 118.6 906.2 117.6 905.8 116.6C905.7 116.2 905.4 115.8 904.9 115.6ZM904.4 118.1C904 118.3 903.5 118 903.3 117.6C903.2 117.4 903.2 117.2 903.3 116.9C903.4 116.7 903.6 116.5 903.8 116.5C903.9 116.5 904 116.4 904.1 116.4C904.2 116.4 904.3 116.4 904.5 116.5C904.7 116.6 904.9 116.8 904.9 117C905.1 117.4 904.9 117.9 904.4 118.1ZM921.5 112.4C921.2 111.4 920.1 110.9 919.1 111.3C918.1 111.7 917.6 112.7 918 113.7C918.3 114.5 919 114.9 919.7 114.9C919.9 114.9 920.1 114.9 920.3 114.8C921.3 114.5 921.8 113.4 921.5 112.4ZM920 113.9C919.6 114.1 919.1 113.8 918.9 113.4C918.7 113 919 112.5 919.4 112.3C919.5 112.3 919.6 112.2 919.7 112.2C920 112.2 920.4 112.4 920.5 112.8C920.7 113.2 920.5 113.7 920 113.9ZM934.4 109.2C934 109 933.4 109 933 109.1C932.5 109.3 932.2 109.6 932 110.1C931.8 110.5 931.8 111.1 931.9 111.5C932.2 112.3 932.9 112.7 933.6 112.7C933.8 112.7 934 112.7 934.2 112.6C935.2 112.3 935.7 111.2 935.3 110.2C935.2 109.8 934.9 109.5 934.4 109.2ZM933.9 111.7C933.5 111.9 933 111.6 932.8 111.2C932.7 111 932.7 110.8 932.8 110.5C932.9 110.3 933.1 110.1 933.3 110.1C933.4 110.1 933.5 110 933.6 110C933.7 110 933.8 110 934 110.1C934.2 110.2 934.4 110.4 934.4 110.6C934.6 111.1 934.4 111.6 933.9 111.7ZM853 147.5C852.8 147 852.5 146.7 852 146.5C851.6 146.3 851 146.3 850.6 146.4C850.1 146.6 849.8 146.9 849.6 147.4C849.4 147.8 849.4 148.4 849.5 148.8C849.7 149.3 850 149.6 850.5 149.8C850.7 149.9 851 150 851.3 150C851.5 150 851.7 150 851.9 149.9C852.8 149.5 853.3 148.4 853 147.5ZM851.5 148.9C851.3 149 851.1 149 850.8 148.9C850.6 148.8 850.4 148.6 850.4 148.4C850.3 148.2 850.3 148 850.4 147.7C850.5 147.5 850.7 147.3 850.9 147.3C851 147.3 851.1 147.2 851.2 147.2C851.3 147.2 851.4 147.2 851.6 147.3C851.8 147.4 852 147.6 852 147.8C852.2 148.2 852 148.7 851.5 148.9ZM840.1 141.7C839.8 140.7 838.7 140.2 837.7 140.6C836.7 141 836.2 142 836.6 143C836.8 143.5 837.1 143.8 837.6 144C837.8 144.1 838.1 144.2 838.4 144.2C838.6 144.2 838.8 144.2 839 144.1C839.5 143.9 839.8 143.6 840 143.1C840.3 142.7 840.3 142.2 840.1 141.7ZM839.2 142.7C839.1 142.9 838.9 143.1 838.7 143.1C838.5 143.2 838.3 143.2 838 143.1C837.8 143 837.6 142.8 837.6 142.6C837.4 142.2 837.7 141.7 838.1 141.5C838.2 141.5 838.3 141.4 838.4 141.4C838.7 141.4 839.1 141.6 839.2 142C839.3 142.3 839.3 142.5 839.2 142.7ZM822.2 142.3C821.8 142.1 821.2 142.1 820.8 142.2C819.8 142.5 819.3 143.6 819.7 144.6C819.9 145.1 820.2 145.4 820.7 145.6C820.9 145.7 821.2 145.8 821.5 145.8C821.7 145.8 821.9 145.8 822.1 145.7C823.1 145.4 823.6 144.3 823.2 143.3C823 142.9 822.6 142.5 822.2 142.3ZM821.7 144.8C821.5 144.9 821.3 144.9 821 144.8C820.8 144.7 820.6 144.5 820.6 144.3C820.4 143.9 820.7 143.4 821.1 143.2C821.2 143.2 821.3 143.1 821.4 143.1C821.5 143.1 821.6 143.1 821.8 143.2C822 143.3 822.2 143.5 822.2 143.7C822.4 144.2 822.1 144.7 821.7 144.8ZM806.9 144.8C806.5 143.8 805.5 143.3 804.5 143.7C803.5 144 803 145.1 803.4 146.1C803.6 146.6 803.9 146.9 804.4 147.1C804.6 147.2 804.9 147.3 805.2 147.3C805.4 147.3 805.6 147.3 805.8 147.2C806.3 147 806.6 146.7 806.8 146.2C807 145.7 807 145.2 806.9 144.8ZM805.9 145.8C805.8 146 805.6 146.2 805.4 146.2C805.2 146.3 805 146.3 804.7 146.2C804.5 146.1 804.3 145.9 804.3 145.7C804.1 145.3 804.4 144.8 804.8 144.6C804.9 144.6 805 144.5 805.1 144.5C805.4 144.5 805.8 144.7 805.9 145.1C806 145.3 806 145.6 805.9 145.8ZM986.7 210.2H816.7C816.1 210.2 815.7 210.6 815.7 211.2V381.2C815.7 381.8 816.1 382.2 816.7 382.2H986.7C987.3 382.2 987.7 381.8 987.7 381.2V211.2C987.7 210.7 987.3 210.2 986.7 210.2ZM860.2 314.2C862.5 315 894 326.5 931.5 344.8C940.1 349 948.2 353.2 955.6 357.1V357.2C955.7 357.3 955.9 357.4 956 357.4H956.1C964.8 362 972.5 366.4 978.9 370.1C979 370.2 979.2 370.3 979.3 370.3C979.4 370.3 979.5 370.3 979.6 370.2C979.5 370.3 979.5 370.3 979.4 370.3C981.7 371.6 983.7 372.8 985.7 373.9V380.1H951.3C951.2 380.1 951.1 380.2 951 380.2H950.8C950.7 380.2 950.5 380.1 950.4 380.1H939.7C931.2 377.1 922.9 373.4 915 369.5C892.2 358.3 868.2 342.1 847.7 327.7C847.6 327.6 847.5 327.5 847.4 327.5C844.5 325.5 841.7 323.5 838.9 321.5C830.8 315.8 823.7 310.7 817.7 306.8V302.2C822.7 305 828 308.7 834.2 313C834.3 313.1 834.4 313.1 834.5 313.1C834.7 313.1 834.8 313 834.9 312.9C835.1 312.7 834.9 312.4 834.7 312.2C828.2 307.7 822.7 303.9 817.7 301.1V300.6C818.7 300.8 818.6 300.9 819 301.1C847.5 313.2 858.7 314.2 860.2 314.2ZM887.5 267.3C884.9 263.9 883.6 260.6 883 257.7C886.6 262.5 891.4 265.4 892.4 266C892.6 268.1 892.9 270.2 893.3 272.5V272.6C893.3 272.7 893.3 272.9 893.4 273C893.8 275.6 894.4 278.3 895.1 281.1C895.1 281.2 895.2 281.2 895.2 281.3C895.3 281.4 895.4 281.3 895.6 281.3C895.5 281.3 895.3 281.5 895.2 281.4C896.6 287 898.6 293.1 901.3 299.1C901.9 299.3 902.2 299.4 902.3 299.4C902.5 299.4 902.7 299.6 902.7 299.9C902.7 299.7 902.5 299.5 902.3 299.5C902.3 299.5 901.9 299.4 901.3 299.3C898.6 298.6 890.7 296.1 882.7 291C882.1 290.2 881.6 289.6 881.2 289L890.9 287.9C891.3 287.9 891.7 287.5 891.8 287.1C891.9 286.7 891.7 286.2 891.3 286C884.5 282.2 881.2 271.9 880.2 268.2L886.7 269C887.1 269 887.5 268.9 887.7 268.5C887.8 268.1 887.7 267.6 887.5 267.3ZM882.7 250.1L887 252.2C887.3 252.3 887.6 252.3 887.9 252.2C888.2 252.1 888.4 251.8 888.4 251.5C888.8 249.4 885.9 242.9 884.7 240.5C885.1 238.4 886.5 236.1 888.2 233.9C887.1 241 891.3 247.5 891.9 248.4C891.6 252.8 891.5 258.4 892.1 264.8C890.3 263.6 885.5 260.3 882.5 255.4C882.3 253.1 882.5 251.2 882.7 250.1ZM897.3 251.7C897.7 252 898.2 252 898.6 251.6L907 243.7C907.2 244.3 907.4 245 907.6 245.7C905.4 248.4 897.1 258.7 893.9 270C892.7 261.2 892.7 253.6 893.1 248.1C893.5 246.6 896 238.3 900.2 233.8C901.2 235.3 902 236.7 902.1 237.3C902.4 238.9 899.4 245.9 897.1 250.4C896.8 250.9 896.9 251.4 897.3 251.7ZM939.6 231.6C945.9 235 949.7 240.9 953.7 247.1C958.1 253.8 962.6 260.8 970.6 264.7C970.7 264.8 970.9 264.8 971 264.8C971.4 264.8 971.7 264.6 971.9 264.2C972.1 263.7 971.9 263.1 971.4 262.9C963.9 259.2 959.5 252.5 955.3 246C953.6 243.3 951.8 240.6 949.8 238.1C951.7 239.5 953.5 240.8 955.4 242.2C959.6 245.3 963.8 248.5 969 251.5C969.3 251.7 969.6 251.9 969.9 252C971.3 252.8 972.6 253.6 974.1 254.3C974.5 254.5 975 254.7 975.4 254.9C978.9 256.6 982.5 257.9 985.5 259.1V353C968.5 343.7 944.5 330.9 915.3 317.8L914.3 318.5L915.2 317.8L924.1 310.9C924.5 310.6 924.6 310.1 924.4 309.7C924.2 309.3 923.7 309 923.3 309.1L915.8 310.7L921 302.8C921.3 302.4 921.2 301.9 920.9 301.6C920.6 301.3 920.1 301.2 919.7 301.5L914.2 304.9C915.6 302.3 917.5 299.1 918.1 298.1C921.8 291.8 919.6 283.4 917.2 274.5C916.6 272.3 916 270 915.5 267.8C915.4 267.4 915.1 267.1 914.6 267C914.2 267 913.8 267.2 913.6 267.5L906.8 280.9C907.1 277.5 908.2 271.7 911.7 263.5C913.5 259.3 909.3 245.1 908.4 242.1C909.1 241.3 909.7 240.6 910.1 240.1C911.7 238.2 915.9 234.3 921.3 231.8C928 228.6 934.1 228.6 939.6 231.6ZM958 356.2L971.1 347.2C971.9 347.6 972.7 348.1 973.6 348.5L960.5 357.5C959.6 357.1 958.8 356.7 958 356.2ZM951.1 352.6L964.2 343.6C966.2 344.7 968.2 345.7 970.1 346.7L957 355.7C955.1 354.7 953.1 353.6 951.1 352.6ZM899.5 310.7C899.5 310.5 899.4 310.3 899.2 310.2L897.8 309L902.4 308.9C902.9 308.9 903.2 308.6 903.4 308.1C903.5 307.7 903.3 307.2 902.9 307C894.2 302.3 888.4 297.1 884.9 293.3C893 298 900.5 300.2 901.8 300.2C902.1 301.2 902.8 301.4 902.8 302V302.2C903.4 303.3 903.9 304.5 904.5 305.7C904.5 305.8 904.5 305.8 904.6 305.9C906.3 309 908.2 312.2 910.3 315.4C906.7 313.8 903.1 312.2 899.5 310.7ZM894.2 272.5C896.7 261.1 905 250.3 907.8 246.8C908.2 248.2 908.6 249.7 908.9 251.2C906.4 253.9 897.2 265 895.2 277.9C894.9 276.1 894.5 274.3 894.2 272.5ZM896 281C896.7 267.9 906.1 256.2 909.2 252.5C910.2 256.9 910.7 261.1 910 262.6C903.5 277.7 904.9 284.8 905 285.1C905.1 285.5 905.4 285.8 905.9 285.9C906.3 285.9 906.7 285.7 906.9 285.4L914.3 270.8C914.7 272.2 915 273.6 915.4 274.9C915.5 275.1 915.5 275.3 915.6 275.5C914.7 279.5 911.2 292.9 903.2 301C899.9 294.1 897.6 287.4 896 281C896 281.1 896 280.9 896 281ZM916.5 297C915.4 298.8 910.7 307.2 910.7 307.3C910.5 307.7 910.5 308.2 910.9 308.5C911.2 308.8 911.7 308.9 912.1 308.6L917.1 305.5L913.1 311.6C912.9 311.9 912.9 312.4 913.1 312.7C913.3 313 913.7 313.2 914.1 313.1L919.7 311.9L913.4 316.7C912.8 316.4 912.1 316.1 911.5 315.9C911.6 315.8 911.5 315.6 911.5 315.4C909.3 312.1 907.3 308.8 905.5 305.6C911.8 300.1 916.1 290.9 917.9 286.4C918.4 290.4 918.2 294 916.5 297ZM905 304.7C904.5 303.8 904.1 302.8 903.6 301.9C911 294.6 914.7 283 916.1 277.5C916.7 279.9 917.3 282.2 917.6 284.4C916.3 287.8 911.8 298.7 905 304.7ZM902.5 301.7C902.5 301.6 902.6 301.5 902.6 301.5C902.6 301.6 902.5 301.7 902.5 301.7ZM912 318.3L898.6 327.5L895.9 326.3L909.3 317.1L912 318.3ZM913.1 318.8C914 319.2 914.9 319.6 915.7 320L902.5 329.1C902.4 329.1 902.4 329.2 902.4 329.2L899.7 328L913.1 318.8ZM916.8 320.5C918.9 321.5 921 322.4 923.1 323.4L909.8 332.5C907.6 331.5 905.5 330.6 903.4 329.7L916.8 320.5ZM924.2 323.8C925.1 324.2 925.9 324.6 926.8 325L913.6 334.1C912.7 333.7 911.8 333.3 911 332.9L924.2 323.8ZM927.8 325.5C929.9 326.5 932 327.5 934 328.4L920.8 337.5C918.7 336.5 916.6 335.5 914.5 334.6L927.8 325.5ZM935.1 329C936 329.4 936.8 329.8 937.7 330.2L924.6 339.3C923.7 338.9 922.9 338.5 922 338.1L935.1 329ZM938.7 330.7C940.8 331.7 942.8 332.7 944.8 333.7L931.7 342.7C929.6 341.7 927.6 340.7 925.5 339.7L938.7 330.7ZM945.9 334.2C950.7 336.6 955.3 338.9 959.7 341.2L946.6 350.2C942.2 347.9 937.6 345.6 932.8 343.3L945.9 334.2ZM960.6 341.7C961.4 342.1 962.3 342.6 963.1 343L950 352C949.2 351.6 948.3 351.1 947.5 350.7L960.6 341.7ZM893.5 243.5C893.9 240.2 894.3 238.4 894.4 238.3C894.4 238.3 895.2 234.7 898 230.6C898.6 231.4 899.1 232.2 899.6 232.9C896.7 235.8 894.7 240.2 893.5 243.5ZM893.4 238.1C893.4 238.1 893.3 238.4 893.2 238.8C892.8 236.1 892.5 231.6 894.3 228C894.4 227.9 894.4 227.7 894.3 227.6C894.6 227.4 894.8 227.1 895 227C895.7 227.9 896.5 228.9 897.2 229.9C894.3 234.1 893.4 237.9 893.4 238.1ZM892.7 241.6C892.5 243 892.3 244.7 892.1 246.7C890.7 244.2 887.8 238.2 889.7 232.2C890.8 231 891.9 229.8 892.9 228.9C890.9 234.5 892.6 240.9 892.7 241.6ZM887.9 286.1L879.3 287.1C879 287.1 878.7 287.3 878.5 287.6C878.3 287.9 878.4 288.3 878.5 288.5C878.7 288.9 884.1 298.2 898.7 306.9L895.2 307C894.8 307 894.4 307.3 894.3 307.7C894.2 308 894.2 308.3 894.4 308.6C885.9 305.1 877.1 301.6 868.1 298.1C871.3 291.4 875.7 283.5 880.9 276.3C882.5 279.8 884.8 283.5 887.9 286.1ZM908.3 316.7L894.9 326C877.7 318.7 865.3 314 861.8 312.7C861.9 312.5 862 312.2 862.1 312C863 309.7 864.8 305.3 867.3 300C881.7 305.4 895.4 311 908.3 316.7ZM817.7 380.2V320.7C829.7 324.9 844.6 328.9 846.5 329.4C844.8 328.2 843.2 327.1 841.6 325.9C835.7 324.2 825.7 321.4 817.7 318.5V309.3C823.7 313.2 830.3 318 837.8 323.2L841.7 325.9C843.3 327 844.9 328.2 846.6 329.3C867.1 343.7 891.2 360.1 914.2 371.3C920.6 374.5 927.3 377.1 934.2 380.1H817.7V380.2ZM817.7 300.7C817.6 300.7 817.5 300.6 817.4 300.6C817.5 300.7 817.6 300.7 817.7 300.7ZM816.7 300.7V300.4L816.8 300.5L816.7 300.7L816.8 301.9C817 302 817.2 302.2 817.4 302.3C817.1 302.2 816.7 302.1 816.7 301.9V300.7ZM985.7 370.4V371.7C985.7 371.5 984.9 371.3 984.6 371.1L985.7 370.4ZM986.7 355.8V357L985.7 357.7V360.8L977.1 366.7L978 367.3L985.7 362V361.9L986.7 361.3V360V361.2L985.7 361.9V365L980.4 368.6L981.3 369.2L985.7 366.2V366.1L986.7 365.5L985.7 366.2V369.1L985.6 369.2L983.6 370.6C982.8 370.2 982 369.7 981.2 369.2C980.9 369 980.6 368.8 980.2 368.6C979.4 368.2 978.6 367.7 977.8 367.2C977.5 367 977.2 366.8 976.8 366.6C976 366.2 975.2 365.7 974.4 365.2C974.1 365 973.8 364.8 973.4 364.7C969.7 362.6 965.6 360.3 961.3 358L974.4 349C978.4 351.2 981.5 353.2 985.5 355.1C985.7 355.4 986.7 355.5 986.7 355.8ZM986.7 259.5L986.6 259.4V259.3L985.7 259V258.9C985.7 259 986.7 259.1 986.7 259.2V259.5ZM986.7 257.4C986.7 257.3 986.7 257.3 986.7 257.4V257.2C986.7 257.1 986 257 985.7 256.9V256.8C982.7 255.8 980 254.7 977 253.3C976.4 253 975.8 252.8 975.2 252.5C973.8 251.8 972.4 251 971.1 250.3C967.2 248 963.6 245.3 959.8 242.5C956.4 240 953 237.5 949.2 235.1C946.6 233.3 943.7 231.5 940.6 229.8C926.8 222.3 912.9 233.6 908.7 238.6C908.2 239.2 907.5 240.1 906.6 241.1C906.5 241.2 906.5 241.3 906.5 241.3L901.1 246.4C902.6 242.9 904.3 238.7 903.9 236.9C903.4 234 896.7 225.7 895.9 224.8C895.7 224.6 895.5 224.5 895.2 224.4C894.9 224.4 894.7 224.5 894.5 224.6C894.1 225 883.9 233.3 882.7 240.4C882.7 240.6 882.7 240.8 882.8 241C884.2 244 885.6 247.5 886.2 249.5L882.4 247.6C882.1 247.5 881.8 247.5 881.6 247.6C881.3 247.7 881.1 247.9 881 248.2C880.9 248.6 878.3 256.8 884.6 266.5L878.9 265.8C878.6 265.8 878.3 265.9 878 266.1C877.8 266.3 877.7 266.7 877.8 267C877.9 267.3 878.5 270.4 880.1 274.2C879.9 274.3 879.7 274.4 879.6 274.5C874.1 281.9 869.6 290.2 866.3 297.2C865.6 296.9 864.9 296.7 864.2 296.4C863.7 296.2 863.1 296.5 862.9 297C862.7 297.5 863 298.1 863.5 298.3C864.1 298.5 864.8 298.8 865.4 299C862.9 304.3 861.2 308.6 860.2 311C860 311.4 859.9 311.8 859.8 312C857.1 311.7 845.5 310 819.9 299.3C819.2 299 818.8 298.7 817.8 298.5V212.1H985.8V256.7C985.8 256.8 986.8 256.9 986.8 257.1V257.4H986.7Z" fill="black"/>
<path d="M986.7 357V355.7C986.7 355.5 985.7 355.3 985.7 355.1V356.5L973.7 364.7C974 364.9 974.3 365.1 974.6 365.2L985.7 357.6V357.5L986.7 357ZM845.8 321.4C848.5 323.3 851.2 325.2 854.1 327.2C854.2 327.3 854.3 327.3 854.4 327.3C854.6 327.3 854.7 327.2 854.8 327.1C855 326.9 854.9 326.6 854.7 326.4C851.9 324.4 849.1 322.5 846.4 320.6L844.2 319C844 318.8 843.7 318.9 843.5 319.1C843.3 319.3 843.4 319.6 843.6 319.8L845.8 321.4ZM951.1 379.3C938.8 375 928.4 370.8 919.3 366.3C898.8 356.3 878.1 342.5 862.3 331.7C862.1 331.5 861.8 331.6 861.6 331.8C861.4 332 861.5 332.3 861.7 332.5C877.5 343.4 898.2 357.2 918.8 367.3C927.9 371.7 938.2 376.2 950.4 380.2H951C951.1 380.2 951.2 380.2 951.2 380.1H951.3C951.4 380.1 951.4 380 951.4 379.9C951.5 379.8 951.4 379.4 951.1 379.3ZM895.1 281.5C895.1 281.4 895 281.2 895 281.1V281.2C895 281.3 895 281.4 895.1 281.5ZM776.7 224.3L648 60.3999C647.6 59.8999 646.8 59.8999 646.4 60.3999L517.7 224.4C517.4 224.8 517.4 225.3 517.7 225.6L646.4 389.6C646.6 389.8 646.9 390 647.2 390C647.5 390 647.8 389.9 648 389.6L776.7 225.6C777 225.2 777 224.7 776.7 224.3ZM647.2 387.3L560.1 276.3L574 280.4H574.3C574.7 280.4 575.1 280.1 575.3 279.7L592.5 222.1C595.4 226.4 603 238.9 610 257.5C618.5 280.1 623.8 292.2 641.1 299.4C654.3 304.9 675.4 307.5 708.1 309.8L647.2 387.3ZM543.5 255.2L577.4 265.3L575.5 271.5L550.4 264L543.5 255.2ZM549.3 193.4L545.4 192.2L549.7 186.7L574.3 194C577.7 196.9 581.1 200.1 584.6 203.8L559.9 196.4C559.6 196.3 559.4 196.5 559.3 196.7C559.2 197 559.4 197.2 559.6 197.3L585.9 205.1C588.4 207.8 590.8 210.7 593.2 213.8C593.1 213.8 593 213.9 592.9 213.9L542.4 198.8L542.9 195.1L544.8 192.7L549.1 194H549.2C549.4 194 549.6 193.9 549.7 193.6C549.8 193.8 549.6 193.5 549.3 193.4ZM550.4 185.9L554.8 180.3C559.6 183 565.7 187 572.4 192.5L550.4 185.9ZM588.4 228.5L569.7 222.9C569.4 222.8 569.2 223 569.1 223.2C569 223.5 569.2 223.7 569.4 223.8L588.1 229.4L586.2 235.6L539 221.5L540 215L562.6 221.7H562.7C562.9 221.7 563.1 221.6 563.2 221.3C563.3 221 563.1 220.8 562.9 220.7L540.2 213.9L541.2 207.4L590.3 222.1L588.4 228.5ZM579.8 257.2L535.8 244.1L536.8 237.6L573.9 248.7H574C574.2 248.7 574.4 248.6 574.5 248.3C574.6 248 574.4 247.8 574.2 247.7L536.9 236.6L537.9 230.1L583.9 243.8L579.8 257.2ZM584.1 242.9L538 229.1L539 222.6L586 236.6L584.1 242.9ZM590.5 221.3L541.2 206.6L542.2 200.1L592.4 215.1L590.5 221.3ZM539.8 199.4L540.3 199.5L539.3 206L538.6 205.8C538.3 205.7 538.1 205.9 538 206.1C537.9 206.4 538.1 206.6 538.3 206.7L539.2 207L538.2 213.5L537.5 213.3C537.2 213.2 537 213.4 536.9 213.6C536.8 213.9 537 214.1 537.2 214.2L538.1 214.5L537.1 221L536.4 220.8C536.1 220.7 535.9 220.9 535.8 221.1C535.7 221.4 535.9 221.6 536.1 221.7L537 222L536 228.5L535.3 228.3C535 228.2 534.8 228.4 534.7 228.6C534.6 228.9 534.8 229.1 535 229.2L535.9 229.5L534.9 236L534.3 235.8C534 235.7 533.8 235.9 533.7 236.1C533.6 236.4 533.8 236.6 534 236.7L534.8 236.9L533.9 242.9L519.7 225L539.8 199.4ZM535.6 245.1L579.5 258.2L577.6 264.4L542.4 253.9L535.6 245.2V245.1ZM575.2 272.5L573.5 278.2L557.9 273.5L551.5 265.4L575.2 272.5ZM611.8 256.9C603.8 235.6 594.8 222.2 593.1 219.7L594.3 215.6C600 223.2 605.3 232.1 610 242.4C612.4 247.8 614.5 252.8 616.3 257.3C629.9 290.2 633.8 299.8 712.2 304.4L709.4 308C631.4 302.4 626.8 296.8 611.8 256.9ZM618.2 256.5C616.4 252.1 614.3 247 611.8 241.6C595.6 205.5 570.3 186.9 556 178.8L597.1 126.4C595.3 131.1 593.6 135.2 592.1 138.8C584.3 157.9 581.4 165 589.8 177.8C600.5 193.9 617 209.9 631.3 206.2C637.4 204.6 641.4 199.5 642.1 192.3C642.5 188.1 642.8 183.5 643.1 178.7C644.1 163.2 645.4 143.8 650.1 122.9C653.9 106 662.8 106.8 676.1 107.9C678.4 108.1 680.7 108.3 683 108.4L686.4 112.7C684.9 125.1 681.2 156.9 680.2 179.5C677.2 249.5 689.4 257.1 712.9 265.3C721.8 268.4 728.5 272.7 733 278L713.7 302.6C635.3 297.9 631.5 288.7 618.2 256.5ZM611.4 108.3C636 114.2 645.7 120.6 648.2 122.5C643.4 143.6 642.2 163 641.2 178.6C640.9 183.4 640.6 187.9 640.2 192.2C639.6 198.5 636.3 203 630.9 204.3C622.2 206.5 607.3 200.4 591.6 176.7C591.1 176 590.7 175.3 590.3 174.6C600.9 189.9 612.7 198.7 622.6 198.7H623.7C624 198.7 624.2 198.4 624.2 198.2C624.2 197.9 623.9 197.7 623.7 197.7C613.3 198.4 600.4 188.5 589.2 171.1C589 170.9 588.7 170.8 588.5 171C584.9 162.3 587.8 155.3 594.2 139.7C596.3 134.7 598.8 128.5 601.5 121.2L611.4 108.3ZM681.4 106.2C679.7 106.1 677.9 105.9 676.3 105.8C663.2 104.7 652.7 103.8 648.4 121.3C645.4 119.1 635.7 113 612.1 107.3L647.2 62.4999L681.4 106.2ZM713.7 263.3C690.4 255.1 679.3 248.1 682.3 179.4C683.2 158 686.6 128.3 688.2 114.8L774.6 225L734.3 276.3C729.7 270.9 722.8 266.5 713.7 263.3Z" fill="black"/>
<path d="M632.899 193.5C633.099 193.5 633.199 193.4 633.299 193.3C634.799 191.1 635.799 188.4 636.099 185.3C636.399 181.7 636.699 177.7 636.999 173.9C636.999 173.6 636.799 173.4 636.499 173.4C636.299 173.4 635.999 173.6 635.999 173.9C635.699 177.7 635.399 181.6 635.099 185.3C634.799 188.2 633.999 190.7 632.499 192.8C632.299 193 632.399 193.3 632.599 193.5C632.699 193.4 632.799 193.5 632.899 193.5ZM637.099 164.9C637.399 164.9 637.599 164.7 637.599 164.4C638.299 154.7 639.399 143 641.599 130.3C641.599 130 641.499 129.8 641.199 129.7C640.899 129.7 640.699 129.8 640.599 130.1C638.299 142.8 637.299 154.5 636.499 164.3C636.599 164.6 636.899 164.8 637.099 164.9ZM508.699 10.2002H325.699C325.099 10.2002 324.699 10.6002 324.699 11.2002V192.2C324.699 192.8 325.099 193.2 325.699 193.2H508.699C509.299 193.2 509.699 192.8 509.699 192.2V11.2002C509.699 10.7002 509.299 10.2002 508.699 10.2002ZM507.699 191.2H326.699V12.2002H507.699V28.2002H503.999C503.399 28.2002 502.699 28.8002 502.699 29.3002V33.2002H411.699C409.199 30.2002 407.999 28.6002 407.999 28.5002C407.799 28.1002 407.299 27.9002 406.899 28.0002L396.099 31.1002C395.799 31.2002 395.599 31.3002 395.499 31.6002C395.399 31.9002 395.299 32.2002 395.399 32.4002C395.399 32.5002 395.499 32.1002 395.699 33.1002H388.699V29.2002C388.699 28.6002 388.299 28.1002 387.799 28.1002H370.499C369.899 28.1002 369.799 28.7002 369.799 29.2002V33.1002H344.699C342.899 33.1002 341.799 34.4002 341.799 36.3002V51.5002C341.799 63.6002 340.299 75.9002 338.999 89.0002C337.599 103.3 335.999 118 335.999 133.5C335.999 146 338.299 151.3 341.899 159.3C342.899 161.6 344.199 164.2 345.499 167.3C345.499 167.4 345.599 167.5 345.599 167.6C345.699 167.8 345.599 168.1 345.699 168.3C347.999 173.5 353.299 177.2 359.299 177.2H507.699V191.2ZM417.599 52.5002L423.299 45.1002L427.399 48.2002L431.499 51.3002L425.799 58.7002L417.599 52.5002ZM424.499 60.3002L423.699 61.3002L420.399 58.8002L421.199 57.8002L424.499 60.3002ZM416.399 54.1002L419.699 56.6002L418.899 57.6002L415.599 55.1002L416.399 54.1002ZM397.799 32.8002L406.799 30.2002C408.099 32.1002 412.599 38.0002 421.699 44.0002L416.099 51.3002C403.199 42.1002 398.999 35.2002 397.799 32.8002ZM424.499 43.5002L425.199 42.5002L428.499 45.0002L427.799 46.0002L424.499 43.5002ZM429.299 47.2002L429.999 46.2002L433.299 48.7002L432.599 49.7002L429.299 47.2002ZM432.999 52.6002L443.399 60.6002L441.299 63.3002L437.699 68.0002L427.299 60.0002L432.999 52.6002ZM432.099 66.7002C432.199 66.6002 432.199 66.5002 432.299 66.4002L436.499 69.6002L435.999 70.3002C435.699 70.7002 435.699 71.4002 436.199 71.7002C436.399 71.8002 436.599 71.9002 436.799 71.9002C437.099 71.9002 437.399 71.8002 437.599 71.5002L446.699 59.6002C446.999 59.2002 446.999 58.5002 446.499 58.2002C446.099 57.9002 445.399 57.9002 445.099 58.4002L444.699 59.0002L440.499 55.8002L440.599 55.7002C441.099 55.0002 441.899 54.6002 442.799 54.5002C443.699 54.4002 444.499 54.6002 445.199 55.1002L494.299 92.8002C495.699 93.9002 495.999 95.9002 494.899 97.3002C493.799 96.5002 492.699 95.8002 491.599 95.0002L491.999 94.5002C492.299 94.1002 492.299 93.4002 491.799 93.1002C491.399 92.8002 490.699 92.8002 490.399 93.3002L489.399 94.6002L482.499 103.6L481.399 105.1C481.099 105.5 481.099 106.2 481.599 106.5C481.799 106.6 481.999 106.7 482.199 106.7C482.499 106.7 482.799 106.6 482.999 106.3L483.599 105.6L485.499 106.8C486.099 107.2 486.799 107.6 487.399 108C487.099 108 486.799 108.1 486.599 108.4C486.099 109.1 485.299 109.5 484.399 109.6C483.499 109.7 482.699 109.5 481.999 109L432.899 71.3002C432.199 70.8002 431.799 70.0002 431.699 69.1002C431.299 68.2002 431.599 67.4002 432.099 66.7002ZM486.399 105L484.499 103.9L490.199 96.5002C492.499 98.1002 494.899 99.7002 497.099 101.2C500.699 103.7 503.699 106.2 507.699 108.5V118.5C500.699 114.6 494.199 110.1 486.399 105ZM498.299 99.6002C497.699 99.2002 496.999 98.8002 496.399 98.4002C498.099 96.1002 497.599 92.9002 495.399 91.2002L446.299 53.5002C445.199 52.6002 443.799 52.3002 442.399 52.5002C440.999 52.7002 439.799 53.4002 438.899 54.5002C438.899 54.6002 438.799 54.6002 438.799 54.7002L434.099 51.1002L435.399 49.4002C435.699 49.0002 435.699 48.3002 435.199 48.0002L431.099 44.9002L431.399 44.5002C431.699 44.1002 431.699 43.4002 431.199 43.1002C430.799 42.8002 430.099 42.8002 429.799 43.3002L429.499 43.7002L425.399 40.6002C425.199 40.4002 424.899 40.4002 424.699 40.4002C424.399 40.4002 424.199 40.6002 423.999 40.8002L422.599 42.6002V42.7002C418.799 40.2002 415.799 37.5002 413.499 35.5002H507.699V106C504.699 104 501.499 101.8 498.299 99.6002ZM504.999 33.2002H504.699V30.2002H507.699V33.2002H504.999ZM386.699 30.2002V33.2002H371.699V30.2002H386.699ZM346.499 169C346.599 169 346.599 169 346.499 169ZM392.899 136.9C392.999 137.1 393.199 137.3 393.199 137.5C393.199 137.7 392.999 137.9 392.899 138.1C392.999 137.9 393.099 137.7 393.099 137.5C393.099 137.3 392.999 137 392.899 136.9ZM393.099 159.2C393.199 159.3 393.399 159.3 393.599 159.3C393.799 159.3 393.899 159.2 394.099 159.2H406.199C406.299 159.3 406.499 159.3 406.699 159.3C406.899 159.3 406.999 159.2 407.199 159.2H407.799V161.2H407.399C407.199 161 406.999 160.9 406.699 160.9C406.399 160.9 406.199 161 405.999 161.2H394.399C394.199 161 393.999 160.9 393.699 160.9C393.399 160.9 393.199 161 392.999 161.2H392.799V159.2H393.099ZM399.699 139.8C399.099 139.8 398.699 140.2 398.699 140.8V141.2H394.699V122.2H405.699V141.2H400.699V140.8C400.699 140.3 400.299 139.8 399.699 139.8ZM398.699 143.2V150.6C398.499 150.5 398.299 150.5 398.099 150.7C396.999 151.8 396.999 153.6 398.099 154.7C398.699 155.3 399.399 155.5 400.099 155.5C400.799 155.5 401.599 155.2 402.099 154.7C403.199 153.6 403.199 151.8 402.099 150.7C401.899 150.5 401.599 150.5 401.399 150.7C401.199 150.9 401.199 151.2 401.399 151.4C402.099 152.1 402.099 153.3 401.399 154C400.699 154.7 399.499 154.7 398.799 154C398.099 153.3 398.099 152.2 398.699 151.5V151.9C398.699 152.5 399.099 152.9 399.699 152.9C400.299 152.9 400.699 152.5 400.699 151.9V143.3H405.699V153.2C405.599 153.3 405.599 153.5 405.599 153.6C405.599 153.7 405.599 153.9 405.699 154V157.3H394.699V153.6C394.699 153.8 394.699 154 394.499 154.1C394.599 154 394.699 153.8 394.699 153.6V143.3H398.699V143.2ZM394.699 158.6C394.699 158.8 394.599 158.9 394.399 159C394.499 158.9 394.599 158.7 394.699 158.6ZM405.799 152.8C405.899 152.4 406.199 152.2 406.599 152.2C406.299 152.2 405.999 152.5 405.799 152.8ZM408.999 157.2H407.699V154.2H410.299C410.899 154.2 411.699 154.1 411.699 153.5V141.8C411.699 141.2 410.799 141.2 410.299 141.2H407.699V138.1C407.699 138.3 407.999 138.2 408.399 138.2H483.499C483.599 138.2 483.799 138.4 483.799 138.4V141.2H481.199C480.599 141.2 479.799 141.3 479.799 141.8V153.5C479.799 154.1 480.599 154.2 481.199 154.2H483.799V157.2H482.499C481.899 157.2 481.799 157.8 481.799 158.3V161.9C481.799 162.5 481.899 163.2 482.499 163.2H483.799V169.6C483.799 169.9 483.899 170.2 484.199 170.4L490.199 175.2H401.299L407.399 170.4C407.599 170.2 407.799 169.9 407.799 169.6V163.2H409.099C409.699 163.2 409.799 162.5 409.799 161.9V158.3C409.699 157.8 409.499 157.2 408.999 157.2ZM407.699 152.2V143.2H409.699V152.2H407.699ZM485.199 159.2H497.299C497.399 159.3 497.599 159.3 497.799 159.3C497.999 159.3 498.099 159.2 498.299 159.2H498.799V161.2H498.499C498.299 161 498.099 160.9 497.799 160.9C497.499 160.9 497.299 161 497.099 161.2H485.499C485.299 161 485.099 160.9 484.799 160.9C484.499 160.9 484.299 161 484.099 161.2H483.799V159.2H484.299C484.399 159.3 484.599 159.3 484.799 159.3C484.999 159.3 485.099 159.3 485.199 159.2ZM484.699 152.2C485.199 152.2 485.599 152.7 485.699 153.2C485.599 152.8 485.199 152.2 484.699 152.2ZM497.799 152.2C497.299 152.2 496.899 152.7 496.799 153.2V153.1C496.799 152.6 497.199 152.2 497.799 152.2ZM497.399 137.2C497.399 136.6 497.799 136.3 498.399 136.3C497.899 136.2 497.499 136.7 497.399 137.2ZM496.899 158.8C496.799 158.7 496.799 158.5 496.799 158.3C496.699 158.5 496.799 158.7 496.899 158.8ZM496.699 141.2H492.699V140.8C492.699 140.2 492.299 139.8 491.699 139.8C491.099 139.8 490.699 140.2 490.699 140.8V141.2H485.699V122.2H496.699V141.2ZM490.699 143.2V151.8C490.699 152.4 491.099 152.8 491.699 152.8C492.299 152.8 492.699 152.4 492.699 151.8V151.5C493.199 152.2 493.199 153.2 492.499 153.9C491.799 154.6 490.599 154.6 489.899 153.9C489.199 153.2 489.199 152 489.899 151.3C490.099 151.1 490.099 150.8 489.899 150.6C489.699 150.4 489.399 150.4 489.199 150.6C488.099 151.7 488.099 153.5 489.199 154.6C489.799 155.2 490.499 155.4 491.199 155.4C491.899 155.4 492.699 155.1 493.199 154.6C494.299 153.5 494.299 151.7 493.199 150.6C493.099 150.5 492.899 150.4 492.699 150.5V143.2H496.699V157.2H485.699V143.2H490.699ZM496.799 161.6C496.799 161.7 496.699 161.8 496.699 162C496.699 161.8 496.699 161.7 496.799 161.6ZM496.699 163.2V169.2L491.199 173.6L485.699 169.2V163.2H496.699ZM483.699 152.2H481.699V143.2H483.699V152.2ZM394.699 163.2H405.699V169.2L400.199 173.6L394.699 169.2V163.2ZM407.499 161.5C407.599 161.6 407.699 161.7 407.699 162C407.699 161.8 407.599 161.6 407.499 161.5ZM407.399 159C407.599 158.8 407.699 158.6 407.699 158.4C407.699 158.6 407.599 158.9 407.399 159ZM392.699 152.2H390.699V143.2H392.699V152.2ZM392.699 138.3V141.2H389.999C389.399 141.2 388.799 141.3 388.799 141.8V153.5C388.799 154.1 389.499 154.2 389.999 154.2H392.799V157.2H391.299C390.699 157.2 390.799 157.8 390.799 158.3V161.9C390.799 162.5 390.799 163.2 391.299 163.2H392.799V169.6C392.799 169.9 392.899 170.2 393.099 170.4L399.099 175.2H359.399C354.099 175.2 349.599 172 347.599 167.5C347.499 167.3 347.599 167 347.499 166.8C347.399 166.5 347.299 166.3 347.199 166C346.899 164.8 346.799 163.5 346.799 162.3V135.6C348.799 137.4 351.499 138.2 354.599 138.2H392.099C392.299 138.2 392.699 138.4 392.699 138.3C392.699 138.2 392.799 138.2 392.799 138.2L392.699 138.3ZM507.699 175.2H492.299L498.299 170.4C498.499 170.2 498.699 169.9 498.699 169.6V163.2H500.099C500.699 163.2 500.699 162.5 500.699 161.9V158.3C500.699 157.7 500.599 157.2 500.099 157.2H498.699V154.2H501.399C501.999 154.2 502.699 154.1 502.699 153.5V141.8C502.699 141.2 501.899 141.2 501.399 141.2H498.699V138.2H507.699V175.2ZM498.699 152.2V143.2H500.699V152.2H498.699ZM507.699 131.7V131.4C507.599 131.5 507.599 131.6 507.599 131.7V131.9C507.599 132 507.599 132.1 507.699 132.2V136.2H498.699V122.2H501.599C502.199 122.2 502.599 121.8 502.599 121.2C502.599 120.6 502.199 120.2 501.599 120.2H480.799C480.199 120.2 479.799 120.6 479.799 121.2C479.799 121.8 480.199 122.2 480.799 122.2H483.699V136.5C483.699 136.5 483.499 136.2 483.399 136.2H408.299C407.999 136.2 407.599 136.6 407.599 136.8V122.2H410.399C410.999 122.2 411.399 121.8 411.399 121.2C411.399 120.6 410.999 120.2 410.399 120.2H389.599C388.999 120.2 388.599 120.6 388.599 121.2C388.599 121.8 388.999 122.2 389.599 122.2H392.599V136.6C392.599 136.6 392.599 136.7 392.699 136.7L392.599 136.6V136.5C392.599 136.4 392.199 136.1 391.999 136.1H354.499C348.299 136.1 343.699 131.2 343.699 125V51.6002C343.699 62.1002 342.699 72.7002 341.699 83.8002V125.1C341.699 128.3 342.699 131.3 344.699 133.6V159.2C344.199 159 343.999 158.8 343.799 158.5C340.199 150.5 337.999 145.6 337.899 133.5C337.899 118.1 339.499 103.4 340.899 89.2002C341.099 87.4002 340.599 85.6002 341.599 83.7002C342.599 72.6002 343.399 62.0002 343.399 51.5002C343.399 51.0002 343.099 50.5002 342.599 50.5002H342.699C343.299 50.5002 343.699 50.9002 343.699 51.5002V36.4002C343.699 35.7002 343.799 35.2002 344.599 35.2002H395.599C395.999 35.2002 396.299 34.9002 396.499 34.6002C396.199 34.0002 395.899 33.5002 395.799 33.2002C395.999 33.2002 396.199 34.0002 396.499 34.6002C398.299 37.8002 402.999 44.4002 414.799 52.8002L413.399 54.6002C413.199 54.8002 413.199 55.1002 413.199 55.3002C413.199 55.6002 413.399 55.8002 413.599 56.0002L417.699 59.1002L417.399 59.5002C417.099 59.9002 417.099 60.6002 417.599 60.9002C417.799 61.0002 417.999 61.1002 418.199 61.1002C418.499 61.1002 418.799 61.0002 418.999 60.7002L419.299 60.3002L423.399 63.4002C423.599 63.5002 423.799 63.6002 423.999 63.6002C424.299 63.6002 424.599 63.5002 424.799 63.2002L426.199 61.4002L430.899 65.0002C430.799 65.1002 430.699 65.1002 430.599 65.3002C429.699 66.4002 429.399 67.8002 429.599 69.2002C429.799 70.6002 430.499 71.8002 431.599 72.7002L480.699 110.4C481.599 111.1 482.699 111.5 483.899 111.5H484.599C485.999 111.3 487.199 110.6 488.099 109.5C488.299 109.2 488.299 108.8 488.199 108.5C488.099 108.3 487.999 108.2 487.899 108.1C487.999 108.2 488.299 108.4 488.299 108.5C495.299 113.1 501.899 117.2 507.899 120.8V131.4C507.999 131.3 508.099 131.2 508.299 131.2C507.999 131.2 507.799 131.6 507.699 131.7Z" fill="black"/>
<path d="M445.8 78.8002C446.1 78.8002 446.4 78.7002 446.6 78.4002L447.1 77.7002L472.7 97.3002L472.2 98.0002C471.9 98.4002 471.9 99.1002 472.4 99.4002C472.6 99.5002 472.8 99.6002 473 99.6002C473.3 99.6002 473.6 99.5002 473.8 99.2002L482.9 87.3002C483.2 86.9002 483.2 86.2002 482.7 85.9002C482.3 85.6002 481.6 85.6002 481.3 86.1002L480.9 86.7002L455.3 67.1002L455.7 66.5002C456 66.1002 456 65.4002 455.5 65.1002C455.1 64.8002 454.4 64.8002 454.1 65.3002L453.1 66.6002L446.2 75.6002L445.1 77.1002C444.8 77.5002 444.8 78.2002 445.3 78.5002C445.3 78.8002 445.5 78.8002 445.8 78.8002ZM454 68.7002L479.6 88.3002L473.9 95.8002L448.3 76.2002L454 68.7002ZM349.2 108.4C349.5 108.4 349.7 108.2 349.7 107.9V90.6002C349.7 90.3002 349.5 90.1002 349.2 90.1002C348.9 90.1002 348.7 90.3002 348.7 90.6002V108C348.7 108.2 348.9 108.4 349.2 108.4ZM383.9 131.2H357.6C353.2 131.2 349.8 127.9 349.8 123.5V115.7C349.8 115.4 349.6 115.2 349.3 115.2C349 115.2 348.8 115.4 348.8 115.7V123.5C348.8 128.4 352.7 132.2 357.6 132.2H383.9C384.2 132.2 384.4 132 384.4 131.7C384.4 131.4 384.1 131.2 383.9 131.2ZM458.1 131.2H415.1C414.8 131.2 414.6 131.4 414.6 131.7C414.6 132 414.8 132.2 415.1 132.2H458.1C458.4 132.2 458.6 132 458.6 131.7C458.6 131.4 458.3 131.2 458.1 131.2ZM476.4 131.2H464.5C464.2 131.2 464 131.4 464 131.7C464 132 464.2 132.2 464.5 132.2H476.4C476.7 132.2 476.9 132 476.9 131.7C476.9 131.4 476.7 131.2 476.4 131.2Z" fill="black"/>
<path d="M529.9 380.5L398.8 210.7C398.4 210.2 397.6 210.2 397.2 210.7L266.1 380.5C265.9 380.8 265.8 381.3 266 381.6C266.2 381.9 266.5 382.2 266.9 382.2H529.1C529.5 382.2 529.8 381.9 530 381.6C530.2 381.3 530.2 380.8 529.9 380.5ZM363.9 296.5C369.8 293.8 374 292.8 379.5 294.8C385.4 297 387.7 300.6 390.1 306.7C389.5 307.8 389 308.9 388.5 310L375.4 305.7L362.8 300.3H362.7C363.1 299 363.4 297.7 363.7 296.5H363.9ZM459.3 345.5C458.8 345.3 458.2 345.6 458 346.1C458 346.2 457.9 346.4 457.9 346.5C457.9 346.4 457.9 346.2 458 346.1C458.2 345.6 458.8 345.3 459.3 345.5L460.4 345.9C461.4 344.1 462.2 342.3 462.9 340.4C463.6 338.5 464.2 336.5 464.6 334.5L467.3 335.5L463 346.9L460.3 345.9L459.3 345.5ZM461.1 339.7C457.5 349.3 450.4 357 441.1 361.2C431.8 365.4 421.5 365.7 412 362.1C392.3 354.7 382.3 332.4 389.7 312.6C393.3 303 400.4 295.3 409.7 291.1C414.7 288.8 420 287.7 425.4 287.7C429.9 287.7 434.5 288.5 438.8 290.2C458.4 297.6 468.5 319.8 461.1 339.7ZM360.2 301.5C356.6 311.1 349.5 318.8 340.2 323C331.3 327.1 321.3 327.5 312.1 324.3L314.3 321.5C317.7 322.5 321.1 323.1 324.6 323.1C329.5 323.1 334.3 322.1 338.9 320C347.4 316.1 353.9 309.2 357.2 300.3C361.1 289.8 359.7 278.6 354.3 269.7L356.5 266.9C362.8 276.9 364.6 289.6 360.2 301.5ZM337.1 291.8L351.1 297.7L343 294.9C340.8 294.1 338.5 293.5 336.2 293L337.1 291.8ZM342.3 296.8L355.4 301.2H355.6C352.3 309.1 346.2 315.4 338.3 319C330.8 322.4 322.6 322.9 314.8 320.6L334.8 294.7C337.3 295.4 339.9 296 342.3 296.8ZM356.8 298.1C356.7 298 356.6 297.9 356.4 297.8L338.4 290.2L353.5 270.6C358.3 278.6 359.7 288.6 356.8 298.1ZM309.8 325.7C310 325.7 310.2 325.8 310.4 325.9C310.5 326 310.7 326 310.8 326C315.3 327.6 319.9 328.5 324.5 328.5C330.1 328.5 335.7 327.3 341 324.9C350.5 320.6 357.7 313 361.7 303.4L374.7 307.7L387.4 313.1C380.4 333.7 390.9 356.3 411.3 364C415.9 365.7 420.7 366.6 425.4 366.6C428.9 366.6 432.8 366.1 435.8 365.2C436.8 365 437.2 364.8 437.8 364.6C439.2 364.1 440.5 363.6 441.9 363C442.4 362.8 442.8 362.6 443.3 362.3C444.2 365.2 444.9 368.1 445.3 371.1C445.5 372.5 445 373.9 443.8 374.8C442.7 375.7 441.2 375.9 439.9 375.3C438.4 374.7 437.4 373.1 437.5 371.5C437.5 371 437.6 370.5 437.6 369.9C437.7 368.5 437.8 366.7 437.8 364.6C437.1 364.8 436.5 365 435.8 365.2C435.8 367 435.7 368.5 435.6 369.8C435.6 370.4 435.5 371 435.5 371.5C435.4 374 436.8 376.3 439.1 377.3C439.9 377.6 440.6 377.8 441.4 377.8C442.7 377.8 444 377.4 445 376.5C446.7 375.2 447.5 373.1 447.2 370.9C446.7 367.7 446 364.5 445 361.4V361.3C444.8 360.8 444.3 360.5 443.7 360.6C443.3 360.7 443 361.1 443 361.5C443 361.1 443.3 360.8 443.7 360.6C444.2 360.4 444.8 360.7 445 361.3V361.4C450.9 358.1 455.8 353.4 459.3 347.7L463.2 349.2C463.3 349.2 463.4 349.3 463.6 349.3C463.7 349.3 463.9 349.3 464 349.2C464.2 349.1 464.4 348.9 464.5 348.6L469.5 335.3C469.7 334.8 469.4 334.2 468.9 334L465 332.5C467.9 313.9 457.6 295.2 439.4 288.3C429.4 284.5 418.5 284.9 408.7 289.3C401.4 292.6 395.4 297.9 391.2 304.6C389.2 299.7 386.6 295.4 380 293C373.7 290.6 368.8 292.1 364 294.2C365.6 283.9 363.1 273.6 357.5 265.3L398 213L527.1 380.2H269L310.8 326.1C310.7 326 310.5 326 310.4 325.9C310.1 325.8 309.9 325.8 309.8 325.7Z" fill="black"/>
<path d="M437.599 293.3C428.899 290 419.499 290.3 410.999 294.2C402.499 298.1 395.999 305 392.699 313.9C385.899 332 395.099 352.3 413.099 359.1C417.099 360.6 421.199 361.4 425.399 361.4C430.299 361.4 435.099 360.4 439.699 358.3C448.199 354.4 454.699 347.5 457.999 338.6C464.699 320.4 455.599 300.1 437.599 293.3ZM413.399 358.1C396.299 351.7 387.499 332.8 393.099 315.5C393.199 315.5 393.199 315.6 393.299 315.6L405.999 320.9C413.799 324.2 420.699 328.9 426.599 334.7V334.8C431.799 340.9 434.799 348.9 435.499 358.3C435.499 358.4 435.499 358.5 435.599 358.6C428.399 361 420.599 360.8 413.399 358.1ZM439.199 357.2C438.599 357.5 438.099 357.7 437.499 357.9C437.099 352.9 436.099 348.3 434.399 344.1C436.899 347.8 439.099 351.7 440.799 355.9C440.899 356 440.899 356.1 440.999 356.2C440.499 356.6 439.899 356.9 439.199 357.2ZM456.999 338.1C454.299 345.4 449.299 351.4 442.799 355.3V355.2C435.899 338.8 423.199 326 406.899 319.1L398.899 315.7L457.399 335.4C457.499 335.4 457.599 335.5 457.699 335.5H457.999C457.599 336.4 457.299 337.3 456.999 338.1ZM458.299 333.8C458.199 333.7 458.099 333.6 457.899 333.5L394.899 312.2C394.699 312.1 394.499 312.1 394.399 312.2C397.799 304.5 403.799 298.5 411.399 295C415.799 293 420.599 292 425.299 292C429.299 292 433.299 292.7 437.199 294.2C453.299 300.3 462.099 317.4 458.299 333.8Z" fill="black"/>
<path d="M299.4 186.4L161.8 11.1001C161.4 10.6001 160.6 10.6001 160.2 11.1001L22.5004 186.4C22.2004 186.8 22.2004 187.3 22.5004 187.6L160.1 362.9C160.3 363.1 160.6 363.3 160.9 363.3C161.2 363.3 161.5 363.2 161.7 362.9L299.3 187.6C299.7 187.3 299.7 186.7 299.4 186.4ZM227.8 133.9L225.5 130.2C225.4 130.1 225.4 130 225.4 129.8C225.4 129.9 225.5 130.1 225.5 130.2L227.8 133.9L231.5 139.9C230.8 142.6 231 145.2 232.1 147.1C233 148.7 234.5 149.9 236.5 150.4C237.3 150.6 238.2 150.8 239 151C242.4 151.7 245.3 152.2 246 156C246.1 156.5 246.5 156.8 247 156.8H247.2C247.3 156.8 247.5 156.7 247.6 156.7C247.9 160.5 247.8 164.6 247.4 168.7C246.7 175.5 245.6 181.9 244.1 187.8L243.5 190.1L242.6 193.4C240.7 199.6 238.4 205.4 235.7 210.7L227.8 133.9ZM225.2 121.5C225.2 121.6 225.3 121.8 225.3 121.9L226.8 124.4L237.7 142.3C238 142.8 237.8 143.5 237.3 143.8C237.1 143.9 236.8 144 236.5 143.9C236.2 143.8 236 143.7 235.8 143.4L227.2 129.2L226.7 124.3L225.2 121.8V121.5ZM234.3 144.5C234.7 145.2 235.4 145.7 236.2 145.9C236.4 146 236.7 146 236.9 146C237.5 146 238 145.8 238.5 145.6C239.9 144.7 240.4 142.8 239.5 141.4L237.6 138.3C238.8 137.9 239.9 138 241 138.7C244 140.6 246.2 146.2 247.1 153.3C245.5 150.3 242.1 149.6 239.3 149.1C238.5 148.9 237.7 148.8 236.9 148.6C235.4 148.2 234.4 147.4 233.7 146.2C233.1 145.2 232.9 144 233 142.6L234.3 144.5ZM244.3 194.4L246.1 188.1V188C247.6 182 248.7 175.7 249.3 168.9C250.7 154.1 247.7 140.6 242.1 137C240.4 135.9 238.5 135.7 236.5 136.5L227 120.9C226.9 120.7 226.7 120.5 226.4 120.5L225.7 114.1C225.5 111.8 223.6 110.3 221.3 110.3H184.6C182.6 107.3 180.4 105.4 178.2 104.1V104C176.8 83.5001 172.3 63.6001 165.3 47.9001C161.3 38.8001 156.5 31.3001 151.2 25.6001L160.9 13.3001L297.4 187L240.5 259.5L236.3 217.7C239.9 209.1 242.4 201 244.3 194.4ZM200 174.8C200.1 173.7 200.1 172.5 200.2 171.4C200.3 171.6 200.6 171.7 200.8 171.8L201.9 172L200.5 179.9L194.8 178.9L189.1 177.9L190.5 170L191.6 170.2H191.9C191.7 172.3 191.5 173.4 191.5 173.5C191.5 173.8 191.5 174 191.7 174.3C191.9 174.6 192.1 174.7 192.3 174.7L198.8 175.8H199C199.2 175.8 199.4 175.7 199.6 175.6C199.9 175.3 200 175.1 200 174.8ZM207.3 183.2L204.7 217.9C204.6 218.7 204.2 219.4 203.6 219.9C203 220.4 202.2 220.6 201.4 220.4L174.5 215.7C173.7 215.6 173 215.1 172.6 214.4C172.2 213.7 172 212.9 172.2 212.1L181.7 178.6L187.9 179.7L197.1 181.3L201.2 182L207.3 183.2ZM198.1 173.5L193.7 172.7C194.3 168.7 196.1 153.2 193 134C193.6 134.2 194.1 134.4 194.7 134.5C196.9 142.6 199.1 155.8 198.1 173.5ZM168.7 115.1C167.9 112.7 167.6 110.4 168.1 108.6C168.3 109.7 168.8 110.7 168.8 111.7C168.8 111.8 169 111.9 169.1 112C169.1 112.1 169.3 112.2 169.4 112.3C169.4 112.4 169.5 112.4 169.5 112.5C174.3 121.2 190.4 125.3 199.8 127.7L200.8 127.9V134.2C177.7 128.3 170.5 120.6 168.7 115.1ZM181.7 131.8L181.5 129.8C181.6 129.8 181.7 129.9 181.7 129.9V131.8ZM180.3 127.2C180.8 127.2 181.2 127.5 181.3 128V128.1C181.2 127.6 180.8 127.2 180.3 127.2ZM183.4 165C183.5 165.7 183.3 166.1 182.8 166.6C182.4 167.1 181.7 167.2 181.1 167.2H166.4C165.7 167.2 165.1 167.1 164.7 166.6C164.3 166.1 164.1 165.7 164.1 165L168.1 129.2H179.3L183.4 165ZM188.2 122.4C188.2 122.6 188.3 122.8 188.3 123C188.3 122.8 188.1 122.5 188 122.3C186.6 121.8 185.7 121.3 183.7 120.7V117.5C183.7 116.9 183.5 116.2 183 116.2H178.9L178.8 116.4V116.5C178.8 115 178.8 113.5 178.7 112C178.8 112.1 179 112.2 179.1 112.2H182.2C184.7 115.2 187.3 118.5 188.2 122.4ZM178.6 110.3V110.2C178.6 109.7 178.6 109.1 178.5 108.6C179 109.1 179.6 109.3 180.2 110.3H179C178.9 110.2 178.8 110.2 178.6 110.3ZM178.8 118.2C178.7 118.2 178.6 118.1 178.5 118.1C178.5 118.1 178.5 118 178.6 118C178.8 118.1 179 118.2 179.3 118.2H181.7V119.8C180.7 119.4 180.2 119.2 179.3 118.2H178.8ZM176.8 117C174.4 115.4 172.4 113.6 171.2 111.4C171.2 111.4 171.2 111.3 171.1 111.3C171 108.5 170.8 105.7 170.6 102.8V102.7C168.4 74.2001 160.2 46.7001 146.6 31.4001L149.9 27.2001C155.8 33.6001 160.3 41.4001 163.5 48.7001C171.9 67.4001 176.7 92.3001 176.8 117ZM190.7 122.9C188.7 120.2 186.7 116.2 183.9 112.2C186.7 116.2 188.9 120.2 190.4 122.9H190.3C190.3 122.9 190.5 123 190.6 123C190.6 123 190.7 123 190.7 122.9ZM190.3 122.8C189.7 118.9 187.3 115.2 184.9 112.2C187.3 115.2 189.6 118.8 190.3 122.8ZM83.8004 110L144.8 32.3001C145 32.6001 145.3 32.8001 145.5 33.1001C150.1 38.4001 153.7 44.8001 156.4 50.7001C162.8 64.9001 167.1 83.4001 168.7 102.6V102.8C168 103.7 166.3 106.2 166 110.2H85.0004L145.4 33.1001C145.2 32.8001 144.9 32.6001 144.7 32.4001L83.7004 110.2L82.1004 112.2L80.7004 113.8L82.1004 112L83.8004 110ZM78.7004 118.2V131.7L78.3004 127.9C78.2004 127.4 77.8004 127.2 77.3004 127.2H71.7004L78.4004 118.2H78.7004ZM68.8004 129L70.4004 127L73.0004 123.7L70.4004 127.2L68.8004 129.2L64.5004 134.5L64.3004 136.4L70.0004 129.1H76.3004L80.3004 165C80.4004 165.7 80.2004 166.1 79.7004 166.6C79.3004 167.1 78.6004 167.2 78.0004 167.2H63.5004C62.8004 167.2 62.2004 167.1 61.8004 166.6C61.4004 166.1 61.2004 165.5 61.2004 164.9L64.4004 136.4L64.6004 134.5L68.8004 129ZM78.7004 257.5L23.3004 187L23.4004 186.9L78.7004 257.2L79.5004 258.2L88.0004 269.3L79.5004 258.5L78.7004 257.5ZM231.7 272.3L230.9 271.9L225.2 279.3H166.3C163.8 279.3 161.3 280.7 158.7 281.3H158.5H223.7L161 361L98.4004 281.3H113.1C112.6 281.3 112.2 280.8 112.1 280.3V280.2C112.2 280.7 112.6 281 113.1 281H113.2C114.2 280.8 115.4 280.7 116.6 280.5C115.3 280.7 114.2 280.9 113.2 281.1C113.1 281.1 113.1 281.2 113.1 281.2H158.4C157.9 281.2 157.5 280.8 157.4 280.3V279.9V280.2C157.5 280.7 157.9 280.9 158.4 280.9C158.5 280.9 158.5 281 158.6 281C161.2 280.4 163.8 279.1 166.2 279.1C205.1 268.1 224.2 243.4 234.5 221.4L234.1 217.5C231.1 224.4 227.3 231.5 222.4 238.4C207.7 258.9 186.1 272.1 158.2 279.1L158.1 279C158 279 157.9 279.1 157.8 279.1H126.4C155 274.1 207.7 262 234.1 217.4L233.7 213.8C205 265.6 140.6 275 116.3 278.5C115.1 278.7 113.9 279.1 112.9 279.1C112.9 279.1 112.9 279 112.8 279C112.7 279 112.5 279.1 112.4 279.1H96.8004L80.8004 258.1H120.5C120.8 258.1 121 257.9 121 257.6C121 257.3 120.8 257.1 120.5 257.1H80.0004L24.6004 186.7L62.0004 139.3L62.2004 137.5L62.0004 139.4L59.2004 164.7C59.1004 165.9 59.5004 167.1 60.3004 168C61.1004 168.9 62.3004 169.3 63.5004 169.3H78.2004C79.4004 169.3 80.6004 168.9 81.4004 168C82.2004 167.1 82.6004 165.9 82.5004 164.7L79.0004 133.4C79.2004 133.7 79.5004 133.9 79.8004 133.9C80.4004 133.9 80.8004 133.5 80.8004 132.9V117.6C80.8004 117 80.6004 116.3 80.1004 116.3H80.0004L83.6004 112.3H166V110.4C166 111 165.9 111.3 166 112.3H166.1C166.6 112.3 167 111.8 167.1 111.3V111.4C167.1 112 166.7 112.3 166.1 112.3H166C166.1 113.3 166.3 114.4 166.7 115.7C166.8 116 166.9 116.3 167 116.3H167.2C167.8 116.3 168.2 116.9 168.2 117.4V117.3C168.2 116.8 167.7 116.2 167.2 116.2H167C167 116.2 166.9 116.3 166.9 116.2H164.6C164 116.2 163.7 116.9 163.7 117.5V132.8C163.7 133.4 164.1 133.8 164.7 133.8C165.3 133.8 165.7 133.4 165.7 132.8V118.2H167.1C167.3 118.2 167.4 118.1 167.6 118C167.6 118.1 167.7 118.2 167.7 118.2L167.9 118C167.8 118.1 167.8 118.2 167.7 118.2C169.5 121.4 172.5 124.1 176.6 127.1H167.2C166.7 127.1 166.3 127.4 166.2 127.9L162.1 164.7C162 165.9 162.4 167 163.2 167.9C164 168.8 165.2 169.2 166.4 169.2H181.1C182.3 169.2 183.5 168.8 184.3 167.9C185.1 167 185.5 165.8 185.4 164.6L181.9 133.3C182.1 133.6 182.4 133.8 182.7 133.8C183.3 133.8 183.7 133.4 183.7 132.8V130.8C185.7 131.7 188.2 132.6 190.7 133.4V133C190.6 132.5 191 131.9 191.5 131.8C191 131.9 190.6 132.4 190.7 133C190.7 133.1 190.7 133.3 190.8 133.4C193.3 148.5 192.8 161.4 192.2 168.3C192.2 168.3 192.1 168.3 192.1 168.2L190 167.8C189.7 167.8 189.5 167.8 189.3 168C189.1 168.2 188.9 168.4 188.9 168.6L187.3 177.5L181.2 176.4L177.3 175.7C176.8 175.6 176.2 176 176.1 176.5C176 177 176.4 177.6 176.9 177.7L179.7 178.2L170.3 211.6C169.9 212.9 170.2 214.3 170.9 215.5C171.6 216.7 172.8 217.4 174.2 217.7L201.1 222.4C201.4 222.4 201.7 222.5 201.9 222.5C203 222.5 204 222.2 204.9 221.5C206 220.7 206.7 219.4 206.8 218.1L209.4 183.6L212.2 184.1H212.4C212.9 184.1 213.3 183.8 213.4 183.3C213.5 182.8 213.1 182.2 212.6 182.1L202.7 180.3L204.3 171.4C204.3 171.1 204.3 170.9 204.1 170.7C203.9 170.5 203.7 170.3 203.5 170.3L201.4 169.9C201 169.8 200.7 170 200.5 170.2C201 154.7 199.1 143 197.2 135.3C198.5 135.7 199.9 136 201.3 136.4H201.5C201.7 136.4 202.2 136.3 202.3 136.2C202.5 136 202.9 135.7 202.9 135.4V127C202.9 126.5 202.4 126.1 201.9 126L200.3 125.6C198.2 125.1 195.7 124.4 193.2 123.7C193.3 124.1 193.1 124.6 192.7 124.8C192.6 124.9 192.4 124.9 192.2 124.9C192.3 124.9 192.5 124.9 192.6 124.8C193 124.6 193.2 124.1 193.1 123.7L193 123.6C191.7 120.9 189.2 116.2 186.3 112.2H221.5C222.7 112.2 223.8 113 223.9 114.2L233.9 213.9L234.2 217.4V217.5L234.6 221.4L238.7 261.8L231.6 270.9L216.2 260.7C216 260.5 215.7 260.6 215.5 260.8C215.3 261 215.4 261.3 215.6 261.5L230.9 271.6L231.7 272.3Z" fill="black"/>
<path d="M201.4 207.1C201.1 207.1 200.9 207.3 200.9 207.6L200.4 214.7C200.4 214.8 200.3 215 200.2 215.1C200.1 215.2 199.9 215.2 199.8 215.2L187.1 213L180.5 211.8L177.9 211.3C177.8 211.3 177.6 211.2 177.6 211.1C177.5 211 177.5 210.8 177.5 210.7L182.8 192C182.9 191.7 182.7 191.5 182.5 191.4C182.2 191.3 182 191.5 181.9 191.7L176.6 210.4C176.5 210.8 176.6 211.2 176.8 211.6C177 212 177.4 212.2 177.8 212.3L180.4 212.8L187 214L199.7 216.2H200C200.3 216.2 200.7 216.1 200.9 215.9C201.2 215.6 201.4 215.3 201.5 214.8L202 207.7C201.9 207.4 201.7 207.2 201.4 207.1ZM183.2 188.2H183.3C183.5 188.2 183.7 188.1 183.8 187.8L184.8 184.1L199.3 186.7C199.6 186.7 199.8 186.6 199.9 186.3C199.9 186 199.8 185.8 199.5 185.7L184.5 183.1C184.2 183.1 184 183.2 183.9 183.5L182.7 187.6C182.8 187.9 183 188.1 183.2 188.2ZM201.8 202.7C202.1 202.7 202.3 202.5 202.3 202.2L203.2 190.2C203.2 189.9 203 189.7 202.7 189.7C202.4 189.7 202.2 189.9 202.2 190.2L201.3 202.2C201.3 202.5 201.5 202.7 201.8 202.7ZM176.9 257.2H158.7C158.4 257.2 158.2 257.4 158.2 257.7C158.2 258 158.4 258.2 158.7 258.2H176.9C177.2 258.2 177.4 258 177.4 257.7C177.4 257.4 177.2 257.2 176.9 257.2ZM158.9 117.7C158.9 117.4 158.7 117.2 158.4 117.2H115.9C115.6 117.2 115.4 117.4 115.4 117.7C115.4 118 115.6 118.2 115.9 118.2H158.4C158.7 118.2 158.9 118 158.9 117.7ZM65.1004 163.3C65.2004 163.4 65.3004 163.3 65.5004 163.3H75.9004C76.2004 163.3 76.4004 163.1 76.4004 162.8C76.4004 162.5 76.2004 162.3 75.9004 162.3H66.0004L67.4004 149.7C67.4004 149.4 67.2004 149.3 67.0004 149.3C66.7004 149.3 66.5004 149.5 66.4004 149.8L65.0004 163.1C64.9004 163.2 65.0004 163.2 65.1004 163.3ZM67.5004 144.6C67.6004 144.6 67.6004 144.6 67.5004 144.6C67.8004 144.6 68.0004 144.4 68.1004 144.2L69.3004 133.3C69.3004 133 69.1004 132.8 68.9004 132.7C68.6004 132.7 68.4004 132.9 68.3004 133.1L67.1004 144C67.1004 144.3 67.3004 144.6 67.5004 144.6ZM168.2 163.3C168.3 163.4 168.4 163.3 168.6 163.3H175C175.3 163.3 175.5 163.1 175.5 162.8C175.5 162.5 175.3 162.3 175 162.3H169.1L169.6 158.4C169.6 158.1 169.4 158 169.2 158C168.9 158 168.7 158.2 168.6 158.5L168.1 163.2L168.2 163.3ZM170 150.6C170.3 150.6 170.5 150.4 170.6 150.2L172.5 133.2C172.5 132.9 172.3 132.7 172.1 132.6C171.8 132.6 171.6 132.8 171.5 133L169.6 150C169.5 150.4 169.7 150.6 170 150.6ZM107.4 117.2H89.1004C88.8004 117.2 88.6004 117.4 88.6004 117.7C88.6004 118 88.8004 118.2 89.1004 118.2H107.3C107.6 118.2 107.8 118 107.8 117.7C107.8 117.4 107.7 117.2 107.4 117.2Z" fill="black"/>
</svg>
