<svg width="526" height="526" viewBox="0 0 526 526" fill="none" xmlns="http://www.w3.org/2000/svg">
<path d="M401.7 288.4C401 287.9 400.1 287.9 399.3 288.4L399 287.7C396.4 281.9 391.9 277.6 386.2 275.5L308.4 243.7L301.3 239.8L302.6 238.1C302.8 237.8 302.8 237.3 302.5 237.1C302.2 236.9 301.7 236.9 301.5 237.2L300.1 239.1L288.1 232.5L288.5 228C288.6 227.2 288 226.5 287.2 226.5C286.4 226.4 285.7 227 285.7 227.8L285.6 228.7L284.2 230.4L270.8 223L271.2 218.7C271.3 217.9 270.7 217.2 269.9 217.1C269.1 217 268.4 217.6 268.3 218.4L268.2 219.4L267 221L253.7 213.7L254.2 209.3C254.3 208.5 253.7 207.8 253 207.7C252.2 207.6 251.5 208.2 251.4 208.9L251 212.1L233.3 202.3C228 199.2 221.7 199.2 216.8 202.4C212.2 205.4 209.8 210.6 210.5 216.1L211.8 228.7C203.5 235.2 194.1 238.8 184.6 238.8C175.8 238.8 167.6 236.5 160.1 232.1C154.2 228.6 149 223.9 144.7 218.1C142.7 215.5 139.6 213.2 137 213.8C136.2 214 134.8 214.7 134.4 217V295L130.7 294.7C128.2 294.5 126 296.4 125.4 299.4L123.1 314.9C122.7 317.1 123.1 319.3 124.4 321C125.3 322.2 126.6 323 128.1 323.1C147.5 324.3 186.2 325.6 229.1 325.6C261.6 325.6 296.5 324.8 327.3 322.6C366.2 319.8 390.1 310.8 400.4 295.2C401.1 294.1 401.8 293 402.4 291.9C402.8 290.6 402.6 289.1 401.7 288.4ZM307.2 246.2L307.3 246.3L329.3 255.3C317.1 257.5 304.4 255.8 293.2 250.4L299.6 242.1L307.2 246.2ZM298.4 241.4L291.9 249.8L290.4 249.1C289.7 248.8 288.8 249 288.5 249.7C288.2 250.4 288.4 251.3 289.1 251.6L290 252.1L287.4 255.4C286.9 255.1 286.4 254.9 285.9 254.8L287.7 235.6L298.4 241.4ZM282.5 232.6L275.3 241.6L272.6 240.3C271.9 240 271 240.2 270.7 240.9C270.4 241.6 270.6 242.5 271.3 242.8L273.4 243.8L269.8 248.3C269.3 248 268.8 247.8 268.3 247.6L270.5 226L282.5 232.6ZM268 250.6C268.1 250.6 268.1 250.6 268 250.6ZM265.4 223.2L258 233.1L255.5 231.9C254.8 231.6 253.9 231.8 253.6 232.5C253.3 233.2 253.5 234.1 254.2 234.4L256.3 235.4L252 241.2L250.8 240.6L253.6 216.6L265.4 223.2ZM213.4 215.8C212.8 211.3 214.7 207.2 218.4 204.8C222.1 202.4 226.8 202.2 230.8 204.2L230.5 204.8C230.3 205.2 230.1 205.7 229.9 206.1C229.8 206.4 229.6 206.6 229.5 206.9C227.1 211.7 224.1 216.2 220.7 220.3C218.7 222.7 216.6 224.8 214.4 226.7L213.4 215.8ZM137.3 218.1V217.6C137.4 217.2 137.5 216.7 137.8 216.7C138.6 216.5 140.7 217.5 142.5 219.9C147 226 152.5 230.9 158.7 234.6C166.6 239.3 175.4 241.7 184.7 241.7C198.7 241.7 212.3 234.7 223 222C226.6 217.7 229.7 213.1 232.2 208C232.3 207.8 232.4 207.6 232.5 207.3C232.7 206.8 233 206.3 233.2 205.9C233.3 205.8 233.3 205.6 233.4 205.5L250.8 215.1L247.9 240.1C243.7 240.2 240.4 243.6 240.4 247.8C240.4 248.6 240.5 249.4 240.8 250.2C241 250.9 241.9 251.3 242.6 251.1C243.3 250.9 243.7 250 243.5 249.3C243.3 248.8 243.3 248.3 243.3 247.8C243.3 245.3 245.2 243.3 247.6 243L247.2 246.7C247.1 247.5 247.7 248.2 248.4 248.3H248.6C249.3 248.3 249.9 247.8 250 247L250.1 246L251.4 244.3C252.3 245.2 252.9 246.4 252.9 247.8C252.9 250.5 250.7 252.6 248.1 252.6C247.3 252.6 246.7 253.2 246.7 254C246.7 254.8 247.3 255.4 248.1 255.4C252.3 255.4 255.8 252 255.8 247.7C255.8 245.4 254.8 243.3 253.1 241.9L257.6 235.9L263.4 238.8C263.6 238.9 263.8 238.9 264 238.9C264.5 238.9 265 238.6 265.3 238.1C265.6 237.4 265.4 236.5 264.7 236.2L259.4 233.6L266.8 223.7L267.9 224.3L265.6 247.1C261.6 247.3 258.4 250.7 258.4 254.8C258.4 255.4 258.5 256 258.6 256.5C258.8 257.3 259.5 257.7 260.3 257.6C261.1 257.4 261.5 256.7 261.4 255.9C261.3 255.5 261.3 255.2 261.3 254.8C261.3 252.4 263.1 250.4 265.4 250L265 253.7C264.9 254.5 265.5 255.2 266.3 255.3H266.4C267.1 255.3 267.7 254.8 267.8 254L267.9 253.1L269.4 251.2C270.3 252.1 270.9 253.3 270.9 254.7C270.9 257.4 268.7 259.5 266.1 259.5C265.3 259.5 264.7 260.1 264.7 260.9C264.7 261.7 265.3 262.3 266.1 262.3C270.3 262.3 273.8 258.9 273.8 254.6C273.8 252.3 272.8 250.3 271.2 248.8L274.9 244.1L280.8 247C281 247.1 281.2 247.1 281.4 247.1C281.9 247.1 282.4 246.8 282.7 246.3C283 245.6 282.8 244.7 282.1 244.4L276.8 241.8L283.9 232.8L285.3 233.6L283.4 254C279.5 254.3 276.4 257.6 276.4 261.6C276.4 262.4 276.5 263.2 276.8 263.9C277 264.6 277.8 265.1 278.6 264.8C279.3 264.6 279.8 263.8 279.5 263C279.4 262.5 279.3 262 279.3 261.5C279.3 259.1 281 257.2 283.2 256.8L282.8 260.5C282.7 261.3 283.3 262 284.1 262H284.2C284.9 262 285.5 261.4 285.6 260.7L285.7 259.8L287.2 257.8C288.2 258.7 288.9 260 288.9 261.4C288.9 264.1 286.7 266.2 284.1 266.2C283.3 266.2 282.7 266.8 282.7 267.6C282.7 268.4 283.3 269 284.1 269C288.3 269 291.8 265.6 291.8 261.3C291.8 258.9 290.7 256.8 289 255.4L291.7 251.9C300.3 256.1 309.6 258.2 319.1 258.2C323.9 258.2 328.6 257.7 333.3 256.6C333.5 256.5 333.7 256.4 333.9 256.2L385.5 277.3C389.7 278.8 393.1 281.8 395.5 285.7C393 287.7 385.3 293.2 371.5 297.6C371.1 297.7 370.9 298.1 371 298.5C371.1 298.8 371.4 299 371.7 299H371.9C385.7 294.6 393.3 289.2 396.1 287C396.3 287.3 396.5 287.7 396.6 288L397.2 289.4C396.6 289.8 396 290.3 395.4 290.7C364.6 313 312.4 309.3 261.9 305.6L215 301.4C215 300.3 214.9 299.2 214.9 298.1C224.9 299.2 280.9 305 318.7 305.4C319.1 305.4 319.4 305.1 319.4 304.7C319.4 304.3 319.1 304 318.7 304C280.6 303.5 224 297.6 214.8 296.7C213.4 282.6 207 267.1 200.8 258C215.4 254.8 229 246.7 239.2 235L244.6 228.8L245.8 229.4C246.5 229.7 247.4 229.5 247.7 228.8C248 228.1 247.8 227.2 247.1 226.9L244.9 225.8C244.3 225.5 243.6 225.7 243.2 226.1L237.1 233.1C224.7 247.3 207.2 255.9 189.2 256.7C188.2 256.7 187.2 256.8 186.2 256.8C166.8 256.8 147.8 249.2 137.5 237.3V217.5C137.3 218.2 137.3 218.2 137.3 218.1ZM137.3 242.3C148.4 253.4 167.1 260.4 186 260.4C187.1 260.4 188.1 260.4 189.1 260.3L193 260C195.1 262.9 197.3 266.5 199.2 270.5C199.3 270.8 199.6 270.9 199.8 270.9C199.9 270.9 200 270.9 200.1 270.8C200.5 270.6 200.6 270.2 200.4 269.9C198.6 266.2 196.6 262.7 194.5 259.8C195.5 259.7 196.5 259.5 197.5 259.3C197.5 259.4 197.6 259.5 197.6 259.6C204.4 269.1 211.5 287 211.8 301.9L208.8 301.6V301.4C208.6 294.3 206.7 285.7 203.5 277.1C203.4 276.7 202.9 276.6 202.6 276.7C202.2 276.8 202.1 277.3 202.2 277.6C205.4 286 207.3 294.4 207.4 301.4L137.1 295V242.3H137.3ZM397.9 293.5C388.1 308.4 364.9 317 327 319.7C255.5 324.8 162.2 322.2 128.2 320.2C127.5 320.2 126.9 319.7 126.6 319.3C125.9 318.3 125.6 316.9 125.9 315.5L128.2 300C128.5 298.6 129.4 297.7 130.4 297.7H130.5L258 309.1L261.5 309.4C263.5 309.5 265.5 309.7 267.5 309.8C268.1 309.8 268.7 309.9 269.3 309.9C271.5 310.1 273.6 310.2 275.8 310.4H275.9C278 310.5 280.1 310.7 282.2 310.8C282.7 310.8 283.3 310.9 283.8 310.9C285.9 311 288.1 311.2 290.2 311.3L296.5 311.6C297 311.6 297.5 311.6 298.1 311.7C302.3 311.9 306.5 312 310.7 312.1H312.2C314.3 312.1 316.3 312.2 318.4 312.2H325.2C326.4 312.2 327.6 312.1 328.8 312.1C329.4 312.1 330 312.1 330.6 312C331.8 312 333 311.9 334.2 311.8C334.7 311.8 335.3 311.7 335.8 311.7C337.5 311.6 339.1 311.5 340.7 311.4H340.8C342.5 311.3 344.1 311.1 345.7 310.9C346.2 310.8 346.7 310.8 347.2 310.7C348.3 310.6 349.5 310.4 350.6 310.3C351.2 310.2 351.7 310.1 352.3 310.1C353.4 309.9 354.5 309.8 355.6 309.6C356.1 309.5 356.6 309.4 357.1 309.4C358.6 309.1 360.1 308.9 361.6 308.5H361.7C363.2 308.2 364.7 307.8 366.2 307.5C366.7 307.4 367.1 307.3 367.6 307.1C368.6 306.8 369.6 306.6 370.6 306.3C371.1 306.2 371.6 306 372.1 305.8C373.1 305.5 374.1 305.2 375 304.9C375.4 304.8 375.9 304.6 376.3 304.4C377.7 303.9 379 303.4 380.3 302.9H380.4C381.7 302.4 383 301.8 384.3 301.2L385.5 300.6C386.4 300.2 387.3 299.7 388.2 299.3C388.6 299.1 389.1 298.8 389.5 298.6C390.4 298.1 391.2 297.6 392 297.1C392.4 296.9 392.8 296.6 393.1 296.4C394.3 295.6 395.5 294.9 396.6 294.1C397 293.8 397.4 293.5 397.9 293.2C398 293.1 398.1 293.1 398.1 293C398.2 293 398.1 293.3 397.9 293.5Z" fill="black"/>
<path d="M192.5 315.8C189.8 315.7 187.2 315.7 184.7 315.6C184.3 315.6 184 315.9 184 316.3C184 316.7 184.3 317 184.7 317C187.3 317.1 189.9 317.1 192.5 317.2C192.9 317.2 193.2 316.9 193.2 316.5C193.2 316.1 192.9 315.8 192.5 315.8Z" fill="black"/>
<path d="M227.199 312.5C201.999 310.4 166.999 307.4 143.899 304.8C141.099 304.5 138.499 306.5 138.099 309.3C137.899 310.8 138.299 312.3 139.199 313.5C140.099 314.7 141.499 315.4 142.999 315.4C149.199 315.7 161.999 316.3 177.499 316.8C177.899 316.8 178.199 316.5 178.199 316.1C178.199 315.7 177.899 315.4 177.499 315.4C161.999 314.9 149.299 314.3 142.999 314C141.899 313.9 140.899 313.4 140.199 312.6C139.499 311.7 139.199 310.6 139.399 309.5C139.699 307.4 141.599 306 143.699 306.2C166.899 308.8 201.799 311.8 227.099 313.9C227.499 313.9 227.799 313.6 227.899 313.3C227.899 312.8 227.599 312.5 227.199 312.5ZM259.699 315.1C259.699 315.1 249.399 314.3 234.299 313.1C233.999 313.1 233.599 313.4 233.499 313.7C233.499 314.1 233.799 314.4 234.099 314.5C249.199 315.7 259.499 316.5 259.499 316.5H259.599C259.999 316.5 260.299 316.2 260.299 315.8C260.399 315.5 260.099 315.1 259.699 315.1ZM328.799 306.3C339.099 306.1 348.899 305.1 357.899 303.3C358.299 303.2 358.499 302.8 358.499 302.5C358.399 302.1 357.999 301.9 357.699 301.9C348.799 303.7 339.099 304.7 328.899 304.9C328.499 304.9 328.199 305.2 328.199 305.6C328.099 306 328.399 306.3 328.799 306.3Z" fill="black"/>
</svg>
