<svg width="526" height="526" viewBox="0 0 526 526" fill="none" xmlns="http://www.w3.org/2000/svg">
<path d="M324.499 212.7H202.999C201.399 212.7 200.199 214 200.199 215.5V308C200.199 309.6 201.499 310.8 202.999 310.8H324.599C326.199 310.8 327.399 309.5 327.399 308V215.5C327.399 213.9 326.099 212.7 324.499 212.7ZM325.599 308C325.599 308.6 325.099 309.1 324.499 309.1H202.999C202.399 309.1 201.899 308.6 201.899 308V215.5C201.899 214.9 202.399 214.4 202.999 214.4H324.599C325.199 214.4 325.699 214.9 325.699 215.5V308H325.599Z" fill="black"/>
<path d="M210.4 299.5H240V299.6C240 299.6 240.1 299.6 240.2 299.5H315.4V223.3H210.4V299.5ZM212.2 292.3L232.2 272.3C233.8 270.7 236 269.8 238.3 269.8C240.6 269.8 242.8 270.7 244.4 272.3L245.9 273.8L262.7 290.6C249.8 293.9 242 296.9 239.9 297.8H212.2V292.3ZM313.7 282.2C293.6 283.9 277 287 264.6 290.1L247.7 273.2L274 246.9C275.6 245.3 277.8 244.4 280.1 244.4C282.4 244.4 284.6 245.3 286.2 246.9L313.7 274.4V282.2ZM244.8 297.7C254.5 294.2 278.7 286.8 313.7 283.9V297.7H244.8ZM313.7 225V271.8L287.5 245.6C285.6 243.7 283 242.6 280.2 242.6C277.4 242.6 274.8 243.7 272.9 245.6L246.6 271.9L245.7 271C243.8 269.1 241.2 268 238.4 268C235.6 268 233 269.1 231.1 271L212.3 289.8V225H313.7Z" fill="black"/>
<path d="M232.8 254C237.4 254 241.1 250.3 241.1 245.7C241.1 241.1 237.4 237.4 232.8 237.4C228.2 237.4 224.5 241.1 224.5 245.7C224.5 250.3 228.2 254 232.8 254ZM232.8 239.1C236.4 239.1 239.4 242 239.4 245.7C239.4 249.4 236.5 252.3 232.8 252.3C229.1 252.3 226.2 249.4 226.2 245.7C226.2 242 229.2 239.1 232.8 239.1Z" fill="black"/>
</svg>
