<svg width="32" height="32" viewBox="0 0 32 32" fill="none" xmlns="http://www.w3.org/2000/svg">
<path d="M11.8474 23.3663C12.2314 23.3663 12.5434 23.0574 12.5434 22.6772V12.3168C12.5434 11.9366 12.2314 11.6277 11.8474 11.6277C11.4634 11.6277 11.1514 11.9366 11.1514 12.3168V22.6772C11.1514 23.0574 11.4634 23.3663 11.8474 23.3663Z" fill="black"/>
<path d="M15.9997 23.3663C16.3837 23.3663 16.6957 23.0574 16.6957 22.6772V12.3168C16.6957 11.9366 16.3837 11.6277 15.9997 11.6277C15.6157 11.6277 15.3037 11.9366 15.3037 12.3168V22.6772C15.3037 23.0574 15.6157 23.3663 15.9997 23.3663Z" fill="black"/>
<path d="M20.1514 23.3663C20.5354 23.3663 20.8474 23.0574 20.8474 22.6772V12.3168C20.8474 11.9366 20.5354 11.6277 20.1514 11.6277C19.7674 11.6277 19.4554 11.9366 19.4554 12.3168V22.6772C19.4314 23.0574 19.7434 23.3663 20.1514 23.3663Z" fill="black"/>
<path d="M26.3915 7.65934H21.1115L19.6955 5.42568C19.3595 4.90291 18.8075 4.59399 18.1835 4.59399H13.8155C13.1915 4.59399 12.6395 4.90291 12.3035 5.42568L10.9115 7.65934H5.63155C5.24755 7.65934 4.93555 7.96825 4.93555 8.34845C4.93555 8.72865 5.24755 9.03756 5.63155 9.03756H6.83155V24.9346C6.83155 26.1465 7.81555 27.1207 9.03955 27.1207H23.0075C24.2315 27.1207 25.2155 26.1465 25.2155 24.9346V9.06132H26.3915C26.7755 9.06132 27.0875 8.75241 27.0875 8.37221C27.0875 7.99201 26.7755 7.65934 26.3915 7.65934ZM13.5035 6.16231C13.5755 6.06726 13.6715 5.99597 13.8155 5.99597H18.2075C18.3275 5.99597 18.4475 6.06726 18.5195 6.16231L19.4555 7.65934H12.5675L13.5035 6.16231ZM23.7755 24.9821C23.7755 25.4098 23.4155 25.7663 22.9835 25.7663H9.01555C8.58355 25.7663 8.22355 25.4098 8.22355 24.9821V9.06132H23.7995V24.9821H23.7755Z" fill="black"/>
</svg>
